<?xml version="1.0" standalone="no"?>
<!DOCTYPE svg PUBLIC "-//W3C//DTD SVG 20010904//EN"
 "http://www.w3.org/TR/2001/REC-SVG-20010904/DTD/svg10.dtd">
<svg version="1.0" xmlns="http://www.w3.org/2000/svg"
 width="500.000000pt" height="500.000000pt" viewBox="0 0 500.000000 500.000000"
 preserveAspectRatio="xMidYMid meet">
<metadata>
Created by potrace 1.14, written by Peter Selinger 2001-2017
</metadata>
<g transform="translate(0.000000,500.000000) scale(0.100000,-0.100000)"
fill="#000000" stroke="none">
<path d="M2017 4584 c-9 -10 4 -34 16 -27 6 4 7 1 3 -6 -5 -7 -14 -10 -22 -7
-8 3 -13 2 -13 -2 4 -23 -6 -31 -48 -40 -27 -6 -55 -11 -63 -11 -21 0 -156
-36 -209 -55 -24 -9 -48 -13 -55 -9 -6 3 -8 3 -4 -2 8 -8 -65 -47 -89 -48 -7
0 -13 -4 -13 -8 0 -4 -19 -18 -42 -32 -40 -23 -79 -59 -143 -132 -17 -19 -25
-23 -21 -12 4 11 2 16 -5 12 -5 -4 -7 -15 -4 -24 7 -22 -3 -51 -17 -51 -7 0
-7 5 0 13 8 10 6 13 -11 14 -12 1 -17 -1 -11 -5 6 -4 10 -15 8 -24 -1 -10 3
-18 9 -18 7 0 4 -7 -5 -14 -10 -7 -15 -16 -11 -19 3 -4 0 -7 -8 -7 -12 0 -11
-2 1 -11 12 -8 10 -9 -7 -4 -18 5 -22 3 -17 -9 3 -9 11 -13 16 -10 6 4 4 -4
-2 -17 -18 -34 -24 -38 -15 -9 l7 25 -26 -25 c-15 -13 -24 -30 -21 -38 2 -7 0
-10 -5 -7 -15 9 -12 22 11 43 l20 20 -24 0 c-13 0 -24 -6 -25 -12 -1 -6 -3
-22 -4 -36 -2 -14 -10 -26 -18 -26 -8 -1 -21 -2 -28 -3 -7 0 -10 -5 -7 -11 3
-5 0 -7 -8 -4 -11 4 -14 -2 -12 -21 3 -23 1 -24 -12 -13 -14 11 -15 10 -9 -10
5 -14 3 -22 -4 -22 -6 0 -9 4 -6 9 3 5 -1 12 -10 15 -8 3 -12 11 -8 17 3 6 0
15 -7 20 -9 6 -10 9 -2 9 7 0 17 -8 22 -17 6 -10 11 -13 11 -7 0 5 -6 16 -12
23 -11 11 -10 12 1 6 10 -6 12 -4 6 6 -7 11 -5 11 10 -1 11 -8 16 -10 11 -3
-5 9 -2 11 10 6 14 -5 16 -3 11 11 -5 11 -3 15 5 10 7 -5 8 -3 3 6 -6 9 -4 11
5 5 9 -5 11 -4 6 4 -4 6 -4 11 1 10 13 -3 43 12 39 20 -2 3 2 17 10 31 l13 25
1 -24 c0 -24 15 -21 15 2 1 7 6 11 12 10 6 -1 10 5 9 15 0 10 6 16 16 16 10
-1 15 3 11 9 -3 6 -1 7 6 3 8 -6 8 -1 -1 18 -6 14 -15 26 -20 26 -13 0 -9 -18
5 -23 6 -2 9 -8 4 -12 -4 -5 -13 -3 -19 3 -7 7 -16 12 -22 12 -5 0 -2 -6 9
-13 12 -10 14 -16 7 -21 -7 -4 -12 -2 -12 4 0 6 -4 8 -10 5 -5 -3 -10 1 -10 9
0 8 -4 18 -10 21 -15 10 1 -28 18 -42 9 -7 13 -16 9 -19 -4 -4 -13 -1 -22 6
-9 7 -18 10 -22 6 -3 -3 -1 -6 5 -6 9 0 9 -6 0 -25 -8 -18 -14 -22 -19 -13 -4
7 -3 16 4 21 8 6 7 7 -3 4 -16 -5 -16 -10 -4 -42 7 -17 5 -18 -8 -8 -8 7 -19
9 -23 5 -5 -4 -5 1 -2 11 4 9 2 17 -4 17 -6 0 -9 -9 -6 -20 7 -27 -16 -44 -42
-31 -11 6 -23 11 -28 11 -4 -1 9 -10 30 -21 20 -11 37 -21 37 -24 0 -5 -37 2
-49 10 -5 3 -13 0 -17 -6 -4 -8 -3 -9 4 -5 7 4 12 2 12 -3 0 -6 -7 -11 -15
-11 -17 0 -14 -42 4 -64 5 -6 6 -18 2 -25 -6 -10 -10 -8 -16 6 -5 10 -9 21 -9
24 -1 8 -34 39 -42 39 -3 0 0 -7 7 -16 12 -15 11 -16 -11 -10 -22 6 -23 6 -6
-5 13 -8 15 -13 6 -19 -9 -6 -9 -9 0 -15 7 -4 13 1 17 14 7 26 19 27 19 2 0
-11 -4 -18 -7 -15 -4 2 -10 0 -14 -5 -9 -15 -37 -1 -31 15 7 17 -6 18 -23 2
-7 -7 -11 -8 -10 -3 2 6 -1 29 -5 53 -8 42 -18 52 -32 30 -4 -7 -3 -8 4 -4 19
11 14 -5 -5 -21 -13 -10 -15 -16 -5 -19 19 -9 14 -23 -7 -19 -15 3 -18 -1 -14
-12 4 -10 2 -14 -5 -9 -6 3 -14 1 -17 -5 -4 -6 -16 -14 -28 -18 -20 -7 -19 -8
6 -13 14 -3 24 -2 22 2 -2 4 2 7 9 7 8 0 12 -7 8 -15 -4 -11 -1 -13 9 -7 8 4
11 5 7 0 -4 -4 -3 -14 3 -22 14 -17 -3 -17 -20 0 -10 10 -11 9 -6 -5 4 -10 15
-18 24 -18 14 0 14 -2 1 -10 -13 -9 -7 -14 13 -11 4 0 7 -4 7 -9 0 -6 -4 -10
-8 -10 -5 0 -9 -7 -9 -15 0 -19 2 -19 27 2 22 19 28 39 8 27 -10 -6 -10 -5 -1
8 7 8 10 18 6 21 -3 4 -1 7 5 7 6 0 9 6 6 14 -7 19 24 28 46 13 16 -11 16 -15
4 -32 -10 -13 -14 -15 -14 -5 0 8 -12 -3 -26 -23 -30 -45 -26 -61 5 -21 12 15
23 25 26 22 11 -10 -48 -52 -73 -53 -15 0 -32 -4 -38 -7 -6 -4 -11 -1 -11 7 0
8 5 11 10 8 6 -4 7 -1 2 7 -5 9 -4 11 4 6 15 -9 10 14 -6 32 -10 10 -17 10
-30 2 -17 -10 -17 -10 1 -8 10 2 21 -2 23 -9 3 -8 -8 -10 -34 -8 -26 3 -32 1
-18 -4 19 -8 19 -8 0 -18 -11 -6 -27 -8 -35 -6 -10 3 -9 0 3 -7 9 -6 21 -9 26
-5 5 3 12 1 16 -5 6 -9 -7 -14 -27 -11 -5 0 -8 -4 -8 -10 0 -7 7 -8 18 -4 9 4
23 8 30 8 6 0 12 3 12 7 0 12 39 8 51 -6 10 -12 9 -13 -7 -7 -16 6 -17 5 -6
-9 10 -13 10 -18 1 -24 -7 -4 -9 -3 -5 4 3 6 2 13 -4 17 -6 4 -8 11 -5 16 3 5
-1 6 -10 3 -13 -5 -13 -9 -3 -22 10 -12 10 -14 1 -8 -19 11 -16 -5 4 -21 16
-13 15 -13 -6 -2 -21 10 -23 9 -18 -6 4 -9 7 -19 7 -21 0 -3 5 -2 12 2 7 4 8
3 4 -4 -4 -6 -13 -9 -21 -6 -8 4 -12 10 -9 15 3 5 1 9 -5 9 -15 0 -23 -18 -11
-25 14 -9 12 -36 -2 -34 -28 3 -39 -1 -32 -13 6 -10 4 -10 -7 0 -18 17 -34 15
-19 -3 15 -18 37 -19 43 -2 4 9 6 9 6 -1 1 -18 -27 -26 -43 -13 -11 9 -13 6
-13 -14 0 -26 12 -34 20 -12 3 6 4 2 4 -10 -1 -17 -5 -20 -18 -13 -16 9 -29 4
-29 -11 0 -5 8 -6 18 -3 13 5 14 4 3 -4 -8 -6 -21 -8 -30 -5 -10 3 -7 -4 8
-16 13 -12 19 -21 14 -21 -5 0 -14 5 -21 12 -15 15 -16 3 -2 -22 8 -16 6 -18
-16 -15 -19 2 -24 -1 -19 -13 3 -9 -8 -35 -27 -61 -24 -34 -27 -43 -14 -38 16
6 17 5 6 -8 -7 -9 -16 -12 -19 -8 -10 14 -29 13 -35 -2 -3 -8 -1 -17 4 -20 6
-4 10 -1 10 5 0 7 7 9 16 6 9 -4 22 -3 28 1 7 5 -1 -3 -16 -17 -16 -14 -28
-31 -28 -37 0 -7 -5 -13 -10 -13 -12 0 -9 -22 5 -33 6 -5 -1 -5 -15 -1 -23 6
-24 6 -10 -11 9 -11 10 -16 3 -11 -7 4 -13 3 -13 -2 0 -6 7 -12 15 -16 8 -3
14 -13 14 -23 -1 -17 -2 -17 -6 0 -6 23 -15 22 -31 -4 -11 -17 -11 -20 2 -17
8 2 15 -1 15 -7 0 -5 -7 -9 -15 -7 -8 2 -14 -2 -14 -8 0 -5 5 -10 11 -10 8 0
8 -4 0 -14 -10 -11 -10 -20 -1 -37 10 -17 9 -20 -1 -14 -9 6 -11 3 -6 -8 4
-11 2 -14 -9 -10 -11 4 -12 9 -5 16 16 16 13 31 -2 18 -8 -6 -17 -8 -20 -5 -3
4 -5 -3 -4 -14 0 -11 12 -26 26 -32 17 -8 21 -14 13 -22 -6 -6 -9 -16 -8 -22
2 -6 1 -8 -1 -3 -3 4 -9 5 -14 2 -5 -4 -6 1 -3 9 3 9 11 16 18 16 6 0 4 5 -4
10 -20 13 -27 12 -27 -2 0 -7 -2 -17 -3 -23 -5 -21 0 -36 11 -30 6 4 5 -2 -2
-13 -7 -12 -17 -18 -22 -15 -5 3 -3 9 4 14 10 6 10 9 2 9 -6 0 -10 8 -8 18 2
12 -4 17 -21 18 -13 1 -24 -2 -24 -8 0 -5 -6 -6 -12 -2 -10 6 -10 4 0 -8 7 -8
10 -22 7 -30 -3 -8 3 -24 14 -37 19 -22 20 -22 18 -3 0 12 -4 19 -8 17 -3 -3
-5 7 -3 20 1 14 -2 25 -7 25 -6 0 -7 5 -3 12 10 15 35 -19 27 -38 -3 -8 2 -17
11 -20 9 -3 16 -10 16 -16 0 -5 -5 -6 -10 -3 -6 3 -10 2 -10 -4 0 -5 3 -11 8
-14 4 -2 2 -2 -5 -1 -16 4 -26 -13 -13 -19 6 -3 5 -4 -2 -3 -7 2 -13 9 -13 17
-1 8 -6 13 -13 11 -7 -1 -12 4 -12 12 0 8 -4 17 -9 20 -5 4 -7 -3 -4 -14 3
-11 -1 -28 -8 -38 -11 -14 -11 -15 1 -4 8 6 18 12 23 12 6 0 6 -5 1 -12 -15
-20 -10 -53 6 -50 12 3 12 1 3 -9 -10 -10 -15 -9 -28 1 -12 10 -13 15 -3 21 7
4 9 11 5 16 -16 16 -26 -21 -11 -39 10 -10 13 -22 8 -30 -5 -7 -10 -30 -10
-51 -1 -28 2 -37 12 -33 8 3 11 0 7 -9 -3 -8 -9 -12 -14 -9 -5 3 -9 0 -9 -5 0
-15 10 -13 40 5 18 11 20 14 5 10 -20 -6 -20 -6 -1 9 11 8 15 16 8 16 -7 1
-17 2 -24 3 -6 0 -13 7 -16 14 -4 12 0 12 19 2 20 -11 25 -10 37 9 17 25 28
27 36 5 5 -13 3 -14 -7 -6 -10 8 -16 6 -26 -9 -11 -19 -10 -20 10 -14 l22 7
-22 -23 c-11 -12 -21 -26 -21 -30 0 -9 26 -30 31 -24 3 2 5 -7 5 -20 0 -14 -4
-25 -9 -25 -5 0 -7 6 -4 14 3 8 -1 20 -9 27 -13 10 -14 8 -10 -14 6 -36 15
-49 28 -41 7 5 8 2 3 -5 -5 -9 -10 -10 -18 -2 -22 22 -30 10 -9 -12 12 -13 19
-27 15 -30 -3 -4 0 -7 8 -7 11 0 11 -2 -1 -10 -10 -6 -11 -10 -2 -10 6 0 12
-5 12 -12 0 -9 -3 -9 -12 0 -21 21 -29 13 -12 -13 9 -14 20 -22 25 -19 5 3 9
0 9 -5 0 -19 -28 -12 -35 9 -4 11 -11 17 -17 14 -7 -4 -8 -2 -4 4 4 7 2 12 -3
12 -14 0 -14 -27 -1 -32 6 -2 12 -13 14 -25 3 -12 10 -32 16 -44 10 -17 9 -20
-1 -14 -9 6 -11 3 -6 -9 4 -10 7 -20 7 -22 0 -3 4 -3 9 0 5 3 15 -2 22 -12 12
-15 12 -16 -1 -6 -18 12 -29 12 -50 0 -8 -5 -12 -6 -8 -1 4 4 3 14 -3 22 -9 9
-8 13 0 13 6 0 11 5 11 10 0 6 -6 9 -12 8 -13 -3 -14 8 -4 50 3 15 1 20 -6 16
-6 -4 -8 -3 -5 3 4 6 -1 19 -11 30 -9 10 -16 17 -15 14 2 -2 -5 -10 -15 -18
-13 -11 -14 -13 -2 -12 28 3 41 -1 35 -10 -3 -6 -14 -8 -25 -6 -13 3 -18 0
-14 -7 5 -7 2 -9 -8 -6 -8 4 -15 0 -15 -7 0 -11 5 -12 21 -2 28 15 45 17 52 6
5 -8 -9 -13 -28 -10 -5 0 -8 -3 -8 -9 0 -5 4 -10 9 -10 6 0 9 -9 8 -20 -1 -12
-7 -18 -14 -16 -7 3 -15 0 -19 -6 -4 -6 -3 -8 3 -5 6 4 16 0 23 -8 10 -12 10
-18 0 -30 -16 -19 -3 -40 15 -25 10 8 14 7 18 -2 2 -8 8 -9 13 -4 5 5 4 11 -3
13 -7 3 -13 9 -13 14 0 5 12 2 27 -7 23 -13 24 -13 9 -1 -18 15 -18 16 2 14
11 0 18 -5 15 -11 -4 -5 1 -7 10 -3 11 4 14 2 11 -8 -3 -8 -15 -12 -27 -10
-21 4 -22 4 -3 -10 11 -8 24 -15 30 -15 5 0 6 -3 3 -7 -4 -3 1 -12 11 -20 15
-13 15 -13 -5 -3 -13 6 -23 15 -23 21 0 6 -5 7 -11 3 -8 -4 0 -17 21 -35 18
-16 27 -29 21 -29 -8 0 -7 -5 3 -16 9 -8 16 -21 16 -27 0 -6 -7 -1 -16 11 -21
31 -38 28 -18 -4 10 -15 13 -29 8 -32 -15 -12 -16 -42 -1 -36 8 3 20 -3 28
-12 9 -12 10 -15 2 -10 -23 13 -14 -22 10 -39 21 -16 21 -17 1 -11 -14 4 -21
2 -21 -8 0 -10 9 -14 29 -11 27 3 38 -8 18 -20 -6 -4 -5 -13 2 -25 9 -14 9
-22 -1 -34 -15 -18 -8 -20 20 -6 13 7 19 7 19 0 0 -5 -6 -10 -13 -10 -8 0 -14
-7 -14 -15 0 -14 11 -20 32 -15 6 1 7 -2 3 -6 -4 -4 0 -14 10 -22 12 -10 9 -9
-10 2 -15 9 -29 12 -33 7 -3 -5 4 -13 16 -16 19 -6 20 -7 2 -20 -13 -10 -20
-10 -25 -2 -4 6 -5 14 -2 18 2 4 0 10 -5 13 -5 3 -12 -6 -15 -19 -4 -15 -11
-23 -17 -19 -8 4 -7 0 0 -14 6 -12 17 -19 24 -16 8 3 14 -1 15 -8 2 -22 7 -42
15 -55 4 -6 3 -14 -2 -17 -5 -4 -12 0 -14 6 -4 10 -6 10 -6 0 -1 -7 10 -23 24
-36 18 -17 22 -25 13 -34 -9 -9 -9 -12 0 -12 7 0 12 6 12 13 0 8 4 7 10 -3 7
-11 10 -11 10 -2 0 7 5 10 10 7 6 -4 7 -11 4 -17 -4 -6 -2 -8 3 -5 6 4 14 0
17 -9 5 -12 2 -15 -11 -10 -10 4 -14 4 -10 0 4 -4 -1 -13 -11 -21 -15 -13 -15
-13 5 -4 33 17 39 13 15 -9 -26 -24 -30 -39 -5 -19 15 12 16 12 10 -3 -4 -10
-2 -18 4 -18 6 0 9 9 6 20 -3 10 2 25 9 31 13 10 14 7 9 -19 -3 -20 -1 -32 5
-32 6 0 8 -5 5 -10 -4 -6 -10 -8 -14 -6 -4 3 -8 -1 -8 -9 0 -12 3 -12 15 -3
11 10 18 8 32 -10 10 -12 23 -22 29 -22 6 0 11 -4 11 -10 0 -13 -33 0 -43 17
-10 16 -27 17 -27 2 0 -5 5 -7 10 -4 6 3 10 2 10 -4 0 -5 -6 -11 -12 -14 -7
-2 0 -4 16 -4 15 0 31 -6 35 -12 5 -7 16 -9 27 -4 17 6 18 5 4 -12 -11 -14
-12 -17 -1 -11 9 6 12 5 9 -5 -3 -8 -10 -13 -16 -12 -6 2 -9 -4 -5 -13 4 -11
8 -12 13 -4 5 7 10 3 14 -12 4 -17 8 -20 15 -9 5 8 11 9 15 3 4 -6 -2 -16 -11
-22 -12 -7 -13 -10 -3 -7 8 2 24 0 34 -6 19 -9 19 -10 1 -23 -10 -8 -14 -14
-9 -14 6 0 15 5 22 12 17 17 15 2 -4 -30 -10 -17 -11 -21 -2 -10 9 11 19 14
28 8 8 -5 18 -6 22 -4 4 3 8 0 8 -5 0 -6 -4 -11 -10 -11 -5 0 -10 -5 -10 -11
0 -8 5 -8 15 1 9 8 15 8 15 2 0 -6 -12 -20 -26 -31 -15 -12 -23 -21 -19 -21 4
0 21 11 37 25 28 24 48 25 48 4 0 -6 -4 -8 -9 -4 -11 6 -41 -21 -41 -37 0 -6
8 0 18 12 l19 23 16 -23 c9 -13 20 -20 24 -16 5 5 2 11 -5 13 -6 3 -9 9 -6 14
3 6 12 2 19 -8 15 -20 1 -48 -19 -36 -6 4 -4 -2 4 -13 22 -29 24 -30 17 -12
-8 23 4 30 21 12 7 -8 8 -14 2 -14 -5 0 -10 -5 -10 -11 0 -8 4 -8 13 -1 7 6
22 9 32 7 11 -2 22 -4 25 -4 3 -1 -2 -6 -10 -11 -31 -19 26 -51 69 -39 7 2 16
-2 18 -9 3 -8 -1 -10 -14 -5 -17 7 -17 6 0 -11 9 -9 17 -22 17 -27 0 -5 4 -9
10 -9 5 0 6 8 3 18 -6 15 -5 15 10 3 14 -11 15 -17 6 -28 -7 -8 -18 -12 -25
-9 -13 5 -13 -19 1 -31 4 -4 6 -3 2 2 -3 6 4 17 15 24 18 11 20 11 15 -3 -4
-9 -2 -16 3 -16 6 0 10 7 10 15 0 8 5 15 10 15 15 0 12 -16 -6 -34 -8 -9 -11
-16 -5 -16 5 0 15 8 20 18 6 9 11 13 11 8 0 -5 7 -3 15 4 9 8 15 9 15 2 0 -6
-10 -18 -22 -26 -12 -9 -18 -19 -14 -23 4 -4 11 -1 15 6 7 11 10 11 17 0 5 -8
9 -20 10 -27 2 -8 6 -17 10 -20 4 -4 4 1 1 11 -4 9 -2 17 2 17 5 0 18 3 28 7
17 6 16 4 -2 -18 l-20 -24 21 18 c21 18 22 17 43 -9 23 -29 29 -60 9 -48 -6 4
-8 3 -5 -4 8 -12 32 -10 44 3 4 4 2 5 -4 1 -8 -4 -13 -1 -13 8 0 22 9 20 37
-6 20 -19 27 -20 44 -10 17 11 19 10 16 -10 -2 -13 -2 -17 0 -11 3 7 9 13 14
13 6 0 8 -4 5 -9 -3 -5 0 -14 8 -20 10 -9 15 -8 19 3 4 10 1 13 -8 10 -15 -6
-15 12 -1 35 7 10 6 12 -4 6 -8 -5 -11 -4 -6 3 3 6 1 14 -5 18 -7 4 -9 3 -6
-3 4 -6 -3 -10 -16 -9 -13 1 -21 -4 -20 -12 2 -6 -4 -12 -12 -12 -9 0 -12 6
-9 15 4 8 11 15 18 15 6 0 5 4 -4 9 -8 6 -18 7 -24 4 -5 -3 -6 -1 -2 5 5 8 1
10 -11 6 -15 -5 -16 -4 -3 6 13 10 13 11 0 7 -8 -2 -14 -9 -13 -15 1 -5 -4
-13 -12 -16 -8 -3 -15 -1 -15 4 0 16 32 41 46 36 8 -3 14 0 14 7 0 8 4 7 9 -3
6 -8 7 -18 5 -22 -3 -4 0 -8 5 -8 6 0 11 5 11 10 0 6 5 10 11 10 8 0 8 -4 0
-14 -8 -10 -9 -16 -1 -21 5 -3 10 -2 10 4 0 20 54 3 72 -22 15 -21 24 -25 37
-18 15 9 17 5 16 -24 -1 -19 2 -32 6 -29 5 3 9 0 9 -5 0 -12 -23 -15 -33 -5
-3 4 -2 16 4 27 9 15 8 18 -2 12 -8 -5 -10 -4 -5 4 9 14 -15 11 -27 -4 -5 -6
-6 -1 -2 10 3 11 3 16 -1 12 -4 -4 -13 -2 -21 4 -19 16 -16 3 4 -22 41 -49 56
-59 89 -55 19 3 35 0 37 -7 3 -8 11 -6 23 7 11 10 14 16 7 12 -6 -3 -14 -2
-18 4 -4 6 -11 7 -17 4 -7 -5 -8 -2 -3 7 7 11 5 11 -10 -1 -15 -12 -17 -12
-10 -1 6 10 4 12 -5 6 -9 -6 -11 -4 -5 5 5 8 4 11 -3 7 -6 -5 -8 0 -5 13 3 11
9 20 14 20 5 0 5 -7 2 -17 -5 -12 -3 -14 8 -7 20 12 39 14 39 3 0 -5 -5 -9
-11 -9 -5 0 -7 -5 -3 -12 5 -7 11 -5 21 7 7 11 14 14 14 7 1 -7 3 -16 4 -22 1
-5 3 -13 4 -16 0 -3 8 2 17 10 20 20 33 20 40 1 5 -13 9 -13 23 -3 14 11 14
11 3 -4 -8 -9 -9 -19 -4 -22 6 -3 13 1 16 9 4 12 10 13 25 6 10 -6 22 -7 26
-3 5 4 5 2 1 -5 -5 -9 3 -11 29 -9 30 3 34 2 24 -10 -14 -17 2 -19 20 -1 11
10 13 9 7 0 -9 -16 10 -17 19 -2 5 7 14 4 26 -7 15 -13 19 -14 19 -3 1 10 4 8
11 -4 7 -12 15 -15 22 -9 10 8 32 8 94 0 7 -1 10 -5 7 -10 -3 -5 -10 -5 -16
-2 -7 5 -8 2 -3 -6 6 -9 4 -11 -5 -5 -8 5 -11 4 -6 -3 4 -6 14 -8 23 -5 12 5
14 3 7 -8 -13 -21 -14 -41 -3 -58 7 -12 8 -10 3 9 -6 21 -5 23 8 12 13 -10 17
-10 21 2 4 10 1 13 -7 10 -9 -3 -12 4 -10 23 1 15 3 30 4 33 1 3 2 9 1 13 -1
4 7 3 18 -2 10 -6 22 -7 26 -3 5 4 5 2 1 -5 -4 -7 -12 -10 -19 -7 -8 3 -13 -4
-14 -17 -2 -20 -1 -20 31 5 31 23 34 24 51 8 14 -14 17 -14 13 -2 -8 21 59 21
72 0 8 -13 14 -8 12 10 0 3 9 6 21 7 12 0 16 -1 9 -4 -10 -4 -10 -8 -1 -19 15
-19 27 -18 25 2 0 9 5 19 12 21 6 3 12 -2 12 -11 0 -9 5 -16 12 -16 6 0 8 -3
5 -7 -4 -3 -2 -12 4 -20 8 -9 8 -13 1 -13 -12 0 -25 18 -28 38 -2 8 -6 17 -9
20 -4 4 -6 0 -4 -8 3 -21 -11 -51 -22 -44 -5 3 -6 10 -3 16 4 7 2 8 -4 4 -17
-10 -15 -19 9 -34 12 -8 18 -9 15 -4 -11 18 18 19 44 3 13 -9 21 -11 17 -4
-11 18 15 22 48 6 26 -12 28 -12 13 0 -10 8 -18 20 -18 27 0 9 6 7 20 -5 20
-18 21 -18 45 5 21 20 25 21 31 7 5 -13 8 -13 26 5 19 19 22 20 33 5 9 -12 15
-13 23 -5 8 8 16 7 28 -3 10 -8 15 -9 12 -4 -3 6 0 16 8 23 14 12 15 12 18 -7
2 -19 14 -21 27 -4 9 11 10 14 2 9 -8 -4 -13 -2 -13 5 0 6 8 9 19 6 14 -3 18
-1 14 9 -4 10 0 12 11 8 9 -3 16 -2 16 4 0 9 14 9 40 2 3 -1 -5 -5 -17 -10
-13 -5 -23 -15 -23 -22 0 -9 3 -10 8 -2 12 19 36 21 50 5 11 -14 12 -13 3 4
-5 11 -19 29 -32 40 -12 11 -19 15 -15 8 4 -8 0 -11 -14 -8 -14 3 -18 0 -14
-8 5 -9 4 -9 -6 0 -7 6 -19 9 -27 6 -12 -5 -12 -7 -1 -15 11 -8 10 -9 -1 -6
-8 2 -15 11 -16 19 -2 10 7 15 29 16 17 0 39 4 49 8 12 5 23 1 37 -15 15 -18
23 -20 33 -11 8 6 17 8 21 4 4 -4 4 0 1 9 -5 13 -1 16 21 13 30 -3 54 3 54 14
0 4 -10 8 -22 8 -19 2 -20 0 -8 -8 10 -7 11 -9 2 -7 -8 2 -13 8 -13 13 1 9 11
12 56 16 19 2 40 -6 53 -21 11 -13 11 -11 2 8 -6 12 -15 20 -21 17 -5 -4 -9
-1 -9 4 0 14 11 14 44 1 14 -5 25 -6 25 -2 -3 21 3 31 16 26 8 -4 15 -1 15 4
0 17 34 19 46 3 9 -11 12 -12 19 -1 5 9 4 11 -3 6 -7 -4 -12 -3 -12 2 0 18 14
22 30 7 14 -13 17 -13 17 0 0 8 -4 12 -9 9 -4 -3 -8 -1 -8 4 0 6 12 13 26 16
14 4 47 16 71 28 25 12 52 21 59 21 8 0 14 4 14 8 0 4 16 13 35 20 19 7 35 17
35 21 0 4 7 8 16 8 9 0 12 -5 8 -12 -4 -7 -3 -8 5 -4 6 4 9 11 6 16 -3 4 6 15
19 24 18 12 26 12 29 3 3 -7 6 -5 6 6 1 9 8 17 16 17 8 0 15 5 15 11 0 6 7 9
15 5 8 -3 14 0 12 7 -1 7 6 11 16 11 10 -1 16 1 13 4 -7 6 36 38 47 34 4 -1 7
3 7 9 0 5 5 7 12 3 7 -4 8 -3 4 4 -3 6 2 16 13 22 12 6 32 22 46 36 14 14 30
22 35 19 6 -4 9 -1 8 7 -2 7 3 12 9 11 7 -2 12 1 10 5 -1 5 23 33 53 64 66 66
120 88 213 84 76 -2 111 -21 132 -72 20 -49 23 -80 12 -138 -11 -65 -39 -117
-88 -171 -46 -50 -122 -86 -141 -67 -9 9 -9 12 1 12 7 0 10 4 7 9 -3 4 6 6 19
3 20 -3 25 0 25 16 0 18 -31 39 -51 35 -3 -1 -4 11 -3 27 1 16 -1 29 -5 28
-19 -2 -22 4 -10 19 13 16 12 17 -3 5 -16 -13 -17 -39 -2 -64 4 -7 3 -8 -5 -4
-15 10 -39 -15 -33 -34 2 -9 -2 -7 -12 5 -15 19 -15 19 -16 1 0 -14 -3 -16
-13 -7 -10 8 -14 7 -14 -4 0 -8 4 -12 8 -9 4 2 10 0 14 -6 4 -6 10 -8 15 -5 5
3 16 -2 25 -11 24 -24 3 -33 -52 -23 -42 8 -200 81 -213 98 -3 3 -17 12 -32
18 -50 22 -51 -7 -3 -101 66 -130 118 -183 225 -233 152 -72 272 -65 405 23
225 150 346 412 298 644 -26 126 -98 246 -180 303 -50 35 -156 73 -211 76 -9
1 -6 13 9 43 22 43 65 163 90 251 7 26 17 47 22 47 4 0 6 4 2 10 -3 5 3 54 14
109 11 55 23 121 26 148 3 26 8 73 11 103 3 30 7 152 8 270 2 238 5 254 69
297 107 71 200 11 200 -129 0 -59 -17 -102 -20 -51 0 14 -6 29 -13 33 -9 6 -9
9 1 13 9 3 10 6 2 6 -14 1 -26 -16 -30 -43 -4 -25 -5 -26 -33 -31 -12 -2 -25
-7 -29 -11 -3 -4 2 -4 11 -1 10 3 20 2 23 -4 4 -5 3 -9 -2 -8 -19 3 -34 -2
-29 -9 3 -5 -2 -9 -10 -9 -9 0 -13 6 -9 15 4 12 3 13 -9 3 -8 -7 -23 -12 -33
-11 -34 4 -43 0 -43 -19 0 -31 86 -99 148 -117 165 -48 280 69 287 290 5 178
-71 328 -195 384 -73 33 -208 36 -286 5 l-51 -20 -13 56 c-69 323 -238 666
-421 855 -16 16 -26 33 -23 38 3 5 2 8 -3 7 -20 -3 -27 2 -13 11 12 8 12 10
-5 10 -27 0 -114 79 -120 109 -2 14 -10 29 -16 35 -9 8 -9 6 -1 -10 15 -30 1
-40 -16 -12 -7 13 -11 15 -8 6 3 -12 -16 -4 -62 26 -126 82 -291 155 -429 190
-57 15 -69 17 -163 32 -54 8 -313 11 -320 3 -6 -6 -155 -41 -182 -42 -10 -1
-18 -5 -18 -10 0 -4 -4 -6 -9 -2 -5 3 -13 1 -16 -5 -6 -10 -75 -11 -75 0 0 3
-12 6 -27 7 -16 1 -57 4 -93 7 -68 6 -156 7 -227 1 -40 -3 -48 2 -44 28 1 4
-6 10 -14 13 -8 3 -12 10 -9 15 6 10 0 12 -9 3z m-881 -576 c4 -7 3 -10 -1 -5
-5 4 -18 -1 -29 -10 -21 -18 -21 -18 -2 5 22 26 23 26 32 10z m-3 -92 c-10
-13 -19 -23 -21 -21 -5 5 22 45 31 45 4 0 0 -11 -10 -24z m-223 4 c0 -5 -2
-10 -4 -10 -3 0 -8 5 -11 10 -3 6 -1 10 4 10 6 0 11 -4 11 -10z m117 -90 c3
-10 2 -11 -4 -4 -4 6 -15 14 -23 17 -11 5 -9 6 4 4 11 -1 21 -9 23 -17z m-26
-8 c-7 -2 -18 1 -23 6 -8 8 -4 9 13 5 13 -4 18 -8 10 -11z m-165 -107 c-3 -21
-13 -28 -27 -19 -9 5 -7 11 6 21 23 16 24 16 21 -2z m74 -35 c0 -5 -2 -10 -4
-10 -3 0 -8 5 -11 10 -3 6 -1 10 4 10 6 0 11 -4 11 -10z m-210 -320 c0 -5 -2
-10 -4 -10 -3 0 -8 5 -11 10 -3 6 -1 10 4 10 6 0 11 -4 11 -10z m-23 -42 c-3
-8 -6 -5 -6 6 -1 11 2 17 5 13 3 -3 4 -12 1 -19z m-61 -127 c-9 -16 -12 -32
-8 -36 4 -5 1 -5 -5 -1 -10 6 -10 14 2 37 9 16 18 29 21 29 2 0 -2 -13 -10
-29z m-16 -65 c0 -3 -4 -8 -10 -11 -5 -3 -10 -1 -10 4 0 6 5 11 10 11 6 0 10
-2 10 -4z m-100 -361 c-10 -12 -10 -15 0 -15 10 0 10 -3 0 -14 -6 -8 -19 -12
-28 -9 -15 6 -16 5 -2 -12 9 -11 10 -16 3 -11 -8 4 -13 2 -13 -4 0 -6 -4 -8
-10 -5 -6 3 -7 -1 -3 -10 3 -9 9 -13 12 -8 7 10 26 11 35 2 6 -6 -10 -9 -47
-10 -14 0 -16 -3 -7 -14 16 -19 -4 -27 -26 -10 -18 14 -18 16 13 45 18 16 28
32 23 35 -6 3 -14 4 -18 1 -10 -6 -9 30 1 40 4 4 7 0 7 -10 0 -9 5 -14 10 -11
6 4 18 1 27 -7 15 -11 16 -11 10 6 -5 12 -3 23 5 28 19 12 22 10 8 -7z m4140
-6 c0 -5 -4 -9 -8 -9 -5 0 -9 7 -9 15 0 8 4 12 9 9 4 -3 8 -9 8 -15z m-4158
-191 c-7 -7 -12 -8 -12 -2 0 14 12 26 19 19 2 -3 -1 -11 -7 -17z m8 -263 c0
-5 -5 -3 -10 5 -5 8 -10 20 -10 25 0 6 5 3 10 -5 5 -8 10 -19 10 -25z m-65
-35 c-3 -5 -1 -11 5 -15 6 -4 4 -15 -6 -31 -9 -13 -19 -22 -22 -20 -3 3 0 11
6 18 5 7 9 25 7 41 -2 15 1 25 6 21 5 -3 7 -9 4 -14z m80 10 c3 -5 1 -10 -4
-10 -6 0 -11 5 -11 10 0 6 2 10 4 10 3 0 8 -4 11 -10z m33 -253 c-1 -2 4 -12
12 -22 14 -17 14 -17 -8 -4 -12 8 -18 15 -12 17 6 2 7 9 3 15 -3 7 -3 9 1 5 4
-3 6 -8 4 -11z m29 -72 c0 -8 -4 -12 -9 -9 -5 3 -6 10 -3 15 9 13 12 11 12 -6z
m51 -246 c19 10 21 9 15 -5 -4 -12 -3 -15 5 -10 7 4 12 2 12 -4 0 -7 -6 -10
-13 -7 -8 3 -14 -1 -14 -8 0 -7 5 -11 11 -9 6 2 17 -5 24 -17 8 -12 9 -18 3
-14 -6 3 -11 2 -11 -3 0 -17 13 -22 28 -9 13 9 14 9 8 0 -6 -12 4 -18 26 -14
4 0 4 -7 1 -16 -4 -11 -8 -13 -11 -5 -2 7 -8 12 -13 12 -6 0 -6 -7 0 -19 6
-10 7 -21 4 -25 -3 -3 -1 -6 5 -6 7 0 12 5 12 10 0 6 5 10 11 10 5 0 3 -10 -5
-22 -21 -29 -20 -44 0 -27 13 10 17 10 25 -2 5 -8 9 -17 9 -21 0 -5 3 -7 8 -5
4 1 7 -2 7 -8 0 -5 -3 -9 -7 -8 -3 1 -12 -5 -19 -14 -12 -14 -11 -15 9 -9 16
5 22 3 22 -8 0 -9 6 -13 14 -10 8 3 17 0 22 -7 4 -7 2 -15 -4 -17 -8 -2 -8 -8
3 -18 8 -8 11 -22 8 -32 -5 -14 -3 -15 7 -5 11 10 17 9 32 -4 19 -17 25 -39 8
-28 -5 3 -10 -1 -10 -9 0 -9 -5 -16 -10 -16 -7 0 -7 6 0 19 14 28 14 28 -24
26 -19 -1 -33 2 -30 6 7 11 -7 40 -17 34 -13 -9 -54 54 -54 83 0 17 -5 26 -13
24 -8 -1 -11 2 -8 7 3 5 -3 20 -14 33 -11 14 -16 28 -13 32 3 3 1 6 -6 6 -7 0
-9 5 -5 11 4 8 9 7 15 -2 5 -8 9 -9 9 -3 0 6 -8 18 -17 25 -15 12 -16 12 -8
-1 8 -13 7 -13 -10 0 -11 8 -16 10 -11 3 5 -9 2 -11 -11 -6 -12 4 -10 -1 7
-14 14 -12 23 -24 20 -26 -3 -3 -16 4 -30 15 -23 18 -23 21 -7 33 20 14 22 26
5 23 -8 -2 -13 6 -12 20 1 12 -3 22 -9 22 -6 0 -3 6 8 13 16 13 15 14 -13 12
-18 -1 -32 -1 -32 1 0 1 3 10 6 18 6 15 7 15 18 0 10 -13 17 -14 34 -5z m46 5
c3 -8 2 -12 -4 -9 -6 3 -10 10 -10 16 0 14 7 11 14 -7z m20 -57 c7 -6 6 -7 -4
-4 -8 2 -16 12 -17 23 -2 13 -1 15 4 4 3 -8 11 -19 17 -23z m76 -122 c19 -22
8 -25 -12 -3 -10 10 -14 18 -9 18 5 0 14 -7 21 -15z m33 -70 c-3 -9 -8 -14
-10 -11 -3 3 -2 9 2 15 9 16 15 13 8 -4z m47 -80 c0 -5 -5 -3 -10 5 -5 8 -10
20 -10 25 0 6 5 3 10 -5 5 -8 10 -19 10 -25z m30 -20 c14 -19 14 -19 -2 -6
-10 7 -18 18 -18 24 0 6 1 8 3 6 1 -2 9 -13 17 -24z m30 -40 c0 -8 -4 -15 -10
-15 -5 0 -7 7 -4 15 4 8 8 15 10 15 2 0 4 -7 4 -15z m-70 -5 c0 -5 -2 -10 -4
-10 -3 0 -8 5 -11 10 -3 6 -1 10 4 10 6 0 11 -4 11 -10z m51 -30 c-7 -4 -2
-11 14 -18 21 -10 25 -9 25 4 0 8 -4 12 -10 9 -6 -4 -7 1 -3 11 6 15 7 15 15
-1 5 -9 7 -23 4 -30 -7 -18 31 -45 52 -38 10 4 13 2 8 -6 -5 -7 -17 -9 -29 -5
-18 5 -20 4 -9 -7 7 -8 17 -15 23 -15 5 -1 15 -2 22 -3 9 -1 9 -3 0 -9 -7 -5
-9 -13 -4 -21 7 -11 10 -9 16 8 3 11 11 21 16 21 6 0 1 -13 -11 -30 l-21 -29
28 2 c15 1 32 7 36 12 5 6 6 1 2 -10 -11 -33 -11 -37 4 -43 9 -3 11 0 6 9 -4
8 13 -7 39 -33 25 -26 46 -51 45 -55 -3 -20 2 -27 12 -13 8 11 12 12 16 2 2
-6 9 -10 13 -7 5 3 16 -8 25 -24 10 -20 20 -28 30 -25 8 4 15 1 15 -7 0 -7 3
-9 7 -6 9 10 34 -14 26 -26 -4 -6 0 -8 10 -4 12 4 14 2 10 -11 -6 -14 -4 -15
9 -4 12 10 18 9 28 -3 7 -8 17 -12 23 -8 5 3 7 1 3 -5 -8 -13 33 -44 47 -35 6
3 2 -5 -9 -20 l-19 -25 -32 31 c-18 17 -33 26 -33 19 0 -17 -25 -15 -40 3 -10
12 -9 16 4 21 13 5 14 9 5 20 -9 11 -15 12 -26 3 -11 -9 -12 -9 -7 4 4 12 0
15 -21 13 -14 -2 -23 -1 -20 2 8 9 -27 42 -37 36 -6 -4 -5 3 1 14 15 28 15 28
-19 28 -16 0 -30 -3 -30 -8 0 -4 -11 -2 -25 4 -18 8 -22 14 -14 24 10 13 -2
26 -29 30 -17 3 -44 25 -37 32 3 3 0 11 -6 19 -6 7 -8 13 -3 13 5 0 2 4 -6 10
-9 6 -20 5 -29 -3 -12 -10 -13 -9 -7 1 9 14 -12 45 -25 37 -4 -3 -13 4 -19 15
-6 11 -14 19 -18 19 -21 -3 -31 2 -26 15 3 7 -7 23 -22 35 -15 12 -21 21 -13
21 10 1 8 5 -5 15 -10 8 -22 12 -26 10 -5 -3 -11 2 -14 11 -4 12 -1 14 13 9
11 -3 22 -1 25 4 4 6 14 7 22 4 11 -4 12 -8 5 -13z m84 -40 c3 -6 -1 -7 -9 -4
-18 7 -21 14 -7 14 6 0 13 -4 16 -10z m75 -90 c0 -5 -5 -10 -11 -10 -5 0 -7 5
-4 10 3 6 8 10 11 10 2 0 4 -4 4 -10z m3038 -295 c-3 -3 -9 2 -12 12 -6 14 -5
15 5 6 7 -7 10 -15 7 -18z m-2663 -13 c-3 -3 -11 0 -18 7 -9 10 -8 11 6 5 10
-3 15 -9 12 -12z m48 -89 c-4 -10 -9 -11 -19 -2 -19 15 -18 18 5 16 11 -1 17
-6 14 -14z m152 -11 c-3 -3 -11 0 -18 7 -9 10 -8 11 6 5 10 -3 15 -9 12 -12z
m-5 -52 c0 -5 -2 -10 -4 -10 -3 0 -8 5 -11 10 -3 6 -1 10 4 10 6 0 11 -4 11
-10z m1360 -21 c0 -5 -4 -8 -9 -4 -6 3 -15 -4 -21 -15 -9 -17 -14 -19 -26 -9
-12 10 -12 14 -2 20 6 4 15 6 19 3 4 -2 10 0 14 6 8 13 25 13 25 -1z m-191
-52 c11 -17 11 -19 -3 -14 -8 3 -22 -1 -31 -9 -10 -10 -15 -11 -15 -3 0 9 -4
8 -15 -1 -11 -9 -19 -9 -28 -2 -10 9 -19 8 -35 -3 -13 -10 -23 -12 -27 -5 -4
6 -16 3 -32 -10 -23 -17 -28 -18 -42 -6 -16 13 -45 11 -37 -3 3 -4 -4 -7 -14
-8 -11 -1 -23 3 -26 9 -5 7 -1 9 9 5 9 -3 19 -1 23 5 4 6 3 8 -3 5 -6 -4 -18
-1 -28 7 -15 11 -16 13 -1 13 9 0 16 -4 16 -9 0 -5 5 -6 10 -3 6 4 8 10 5 15
-11 17 17 21 35 5 15 -13 22 -14 37 -5 15 10 16 11 1 6 -10 -3 -20 -1 -23 4
-3 5 8 7 25 5 22 -3 29 -1 23 8 -4 7 0 7 10 -2 10 -8 17 -9 17 -3 0 6 9 10 19
9 11 0 17 -5 15 -9 -3 -5 -11 -5 -17 -2 -9 5 -9 4 -1 -5 13 -14 47 -4 37 12
-3 5 -1 7 5 3 6 -3 13 -3 15 1 11 17 64 10 76 -10z"/>
<path d="M422 2678 c-16 -16 -15 -25 4 -32 13 -5 14 -4 6 7 -9 10 -8 17 0 25
7 7 10 12 7 12 -3 0 -10 -5 -17 -12z"/>
<path d="M613 1645 c0 -7 6 -12 14 -11 19 3 21 19 2 21 -9 2 -16 -3 -16 -10z"/>
<path d="M676 1561 c-3 -5 2 -15 12 -22 15 -12 16 -12 5 2 -7 9 -10 19 -6 22
3 4 4 7 0 7 -3 0 -8 -4 -11 -9z"/>
<path d="M715 1511 c-3 -5 0 -13 6 -16 5 -4 8 -14 4 -22 -4 -13 -3 -14 10 -3
11 9 12 17 4 31 -11 21 -15 23 -24 10z"/>
<path d="M745 1440 c-5 -8 -2 -18 8 -25 9 -7 13 -16 9 -20 -4 -5 -1 -5 6 -1 7
4 15 1 18 -8 3 -9 11 -16 17 -16 5 0 3 8 -6 18 -13 15 -14 21 -4 32 10 10 9
12 -5 7 -11 -4 -21 0 -26 10 -7 12 -11 13 -17 3z"/>
<path d="M855 1291 c-3 -5 4 -16 16 -24 11 -8 16 -16 10 -18 -6 -2 9 -25 34
-51 25 -27 45 -43 45 -36 0 6 7 3 16 -8 15 -18 15 -18 5 2 -6 12 -7 25 -3 29
4 5 2 5 -4 2 -12 -7 -44 22 -41 38 1 5 -14 20 -33 33 -19 13 -34 28 -32 33 3
12 -5 12 -13 0z m65 -56 c7 -8 9 -15 4 -15 -4 0 3 -12 17 -27 15 -18 11 -16
-14 6 -20 19 -37 39 -37 43 0 13 17 9 30 -7z"/>
<path d="M1037 1089 c7 -9 10 -19 6 -23 -4 -4 1 -4 10 0 12 4 17 2 15 -7 -2
-7 2 -13 7 -14 15 0 61 -35 47 -35 -6 0 -12 -4 -12 -8 0 -5 6 -9 14 -9 17 0
15 26 -3 36 -7 5 -13 12 -14 17 -1 5 -5 8 -9 7 -4 -2 -10 6 -13 17 -4 11 -11
18 -16 14 -6 -3 -18 0 -27 8 -15 11 -15 11 -5 -3z"/>
<path d="M1200 963 c0 -5 9 -18 20 -28 11 -10 20 -14 20 -9 0 5 5 2 11 -6 9
-13 10 -13 6 0 -2 8 -9 15 -16 15 -7 0 -19 9 -27 19 -8 11 -14 15 -14 9z"/>
<path d="M1270 920 c0 -5 5 -10 11 -10 5 0 7 5 4 10 -3 6 -8 10 -11 10 -2 0
-4 -4 -4 -10z"/>
<path d="M1316 871 c-11 -12 -13 -21 -7 -25 5 -4 13 -1 16 5 5 7 17 2 34 -15
14 -14 31 -22 37 -18 6 4 -5 20 -27 39 -35 32 -37 32 -53 14z m50 -23 l29 -33
-31 27 c-24 23 -33 26 -44 15 -12 -10 -12 -9 -1 6 7 9 14 17 15 17 1 0 15 -15
32 -32z"/>
<path d="M2699 624 c-6 -8 -7 -14 0 -18 5 -4 12 -2 16 4 4 6 10 8 15 5 4 -3
13 1 18 8 9 10 5 13 -14 13 -14 0 -29 -5 -35 -12z"/>
<path d="M2519 611 c7 -5 9 -11 5 -13 -5 -3 -4 -3 3 -2 7 2 15 -1 18 -6 8 -12
39 -8 58 8 11 9 17 10 22 2 3 -6 11 -8 16 -4 5 3 7 9 4 14 -6 10 -45 5 -54 -7
-11 -15 -38 -13 -51 2 -7 8 -18 15 -24 15 -6 0 -5 -4 3 -9z"/>
<path d="M2373 4545 c0 -8 4 -12 9 -9 5 3 6 10 3 15 -9 13 -12 11 -12 -6z"/>
<path d="M2465 4520 c-3 -5 -1 -10 4 -10 6 0 11 5 11 10 0 6 -2 10 -4 10 -3 0
-8 -4 -11 -10z"/>
<path d="M3720 4360 c-12 -7 -10 -9 7 -7 12 0 19 5 17 9 -6 10 -6 10 -24 -2z"/>
<path d="M1293 4265 c0 -8 4 -12 9 -9 5 3 6 10 3 15 -9 13 -12 11 -12 -6z"/>
<path d="M1335 4251 c-3 -5 -2 -12 3 -15 5 -3 9 1 9 9 0 17 -3 19 -12 6z"/>
<path d="M1310 4226 c0 -2 7 -7 16 -10 8 -3 12 -2 9 4 -6 10 -25 14 -25 6z"/>
<path d="M1186 4161 c-3 -4 4 -7 14 -6 27 2 33 10 10 12 -11 1 -22 -2 -24 -6z"/>
<path d="M1095 4100 c-3 -5 -1 -10 4 -10 6 0 11 5 11 10 0 6 -2 10 -4 10 -3 0
-8 -4 -11 -10z"/>
<path d="M1119 4073 c-13 -17 -13 -17 6 -3 11 8 22 16 24 17 2 2 0 3 -6 3 -6
0 -17 -8 -24 -17z"/>
<path d="M1235 4080 c-3 -5 -1 -10 4 -10 6 0 11 5 11 10 0 6 -2 10 -4 10 -3 0
-8 -4 -11 -10z"/>
<path d="M1216 4047 c3 -10 9 -15 12 -12 3 3 0 11 -7 18 -10 9 -11 8 -5 -6z"/>
<path d="M990 4041 c0 -6 4 -13 10 -16 6 -3 7 1 4 9 -7 18 -14 21 -14 7z"/>
<path d="M1057 4034 c-4 -4 -4 -11 -1 -15 7 -12 34 -11 34 1 0 5 -7 6 -17 3
-11 -4 -14 -3 -9 5 8 13 3 16 -7 6z"/>
<path d="M995 3991 c2 -18 21 -26 30 -12 4 7 -1 8 -12 4 -15 -6 -16 -4 -6 8
10 13 10 16 -1 16 -8 0 -13 -7 -11 -16z"/>
<path d="M1137 3982 c-15 -16 -15 -18 1 -19 11 -1 18 6 18 18 0 23 1 23 -19 1z"/>
<path d="M996 3952 c-2 -4 -1 -14 4 -22 7 -11 9 -9 7 8 -1 24 -3 26 -11 14z"/>
<path d="M933 3925 c-3 -9 -3 -18 -1 -21 3 -3 8 4 11 16 6 23 -1 27 -10 5z"/>
<path d="M1076 3927 c3 -10 9 -15 12 -12 3 3 0 11 -7 18 -10 9 -11 8 -5 -6z"/>
<path d="M810 3869 c0 -5 5 -7 10 -4 6 3 10 8 10 11 0 2 -4 4 -10 4 -5 0 -10
-5 -10 -11z"/>
<path d="M806 3822 c-3 -5 1 -9 9 -9 8 0 12 4 9 9 -3 4 -7 8 -9 8 -2 0 -6 -4
-9 -8z"/>
<path d="M4447 3823 c-7 -15 -1 -38 10 -36 7 1 9 -6 5 -20 -5 -18 -7 -19 -10
-4 -4 20 -22 23 -22 3 0 -13 -23 -26 -58 -32 -8 -1 -17 -6 -20 -10 -4 -4 1 -4
11 -1 19 7 24 -8 5 -17 -7 -3 2 -3 20 0 22 3 31 1 27 -6 -3 -5 -1 -10 4 -10 6
0 11 -7 11 -15 0 -18 11 -19 30 -2 12 10 12 9 3 -3 -8 -10 -9 -21 -3 -30 8
-12 10 -10 11 10 1 14 2 30 2 36 0 6 9 11 21 10 11 -1 21 4 21 11 0 6 4 15 8
20 5 4 7 4 5 -2 -1 -5 1 -11 7 -13 16 -6 17 15 1 21 -9 4 -23 -1 -32 -10 -16
-16 -16 -16 -10 5 5 16 3 22 -8 22 -9 0 -13 7 -11 20 2 11 -2 26 -10 34 -8 7
-11 16 -8 20 4 3 4 6 0 6 -3 0 -8 -3 -10 -7z m-37 -97 c0 -3 -4 -8 -10 -11 -5
-3 -10 -1 -10 4 0 6 5 11 10 11 6 0 10 -2 10 -4z"/>
<path d="M935 3811 c-3 -6 -4 -11 0 -11 3 0 1 -10 -5 -22 -11 -23 -11 -23 5
-3 9 11 21 19 27 17 13 -4 5 21 -9 25 -6 2 -14 -1 -18 -6z"/>
<path d="M816 3783 c-6 -14 -5 -15 5 -6 7 7 10 15 7 18 -3 3 -9 -2 -12 -12z"/>
<path d="M717 3692 c-15 -17 -15 -18 6 -19 12 0 16 1 9 4 -10 4 -10 8 -1 19
17 20 5 17 -14 -4z"/>
<path d="M754 3656 c5 -14 2 -17 -11 -12 -9 4 -20 1 -25 -6 -13 -21 -9 -33 5
-15 10 15 15 16 31 4 17 -12 17 -14 0 -28 -16 -12 -17 -12 -11 4 3 9 2 17 -3
17 -6 0 -10 -7 -10 -16 0 -9 -5 -12 -12 -8 -10 6 -10 4 0 -7 20 -22 14 -34 -8
-14 -13 12 -20 14 -20 5 0 -10 -4 -9 -17 1 -16 13 -17 12 -4 -3 7 -10 10 -18
6 -18 -4 0 -3 -6 2 -12 14 -17 12 -50 -1 -45 -6 2 -10 11 -8 20 3 21 -10 28
-28 15 -12 -8 -11 -9 4 -4 13 4 17 2 13 -8 -3 -7 0 -19 6 -26 9 -10 9 -12 -3
-8 -9 3 -24 0 -35 -8 -10 -8 -14 -14 -8 -14 7 0 15 5 18 10 4 6 11 8 16 4 6
-3 2 -12 -8 -19 -24 -18 -11 -30 17 -15 20 10 21 10 11 -8 -6 -11 -7 -23 -3
-27 4 -5 1 -5 -6 -1 -7 4 -10 12 -7 17 3 5 -1 6 -9 3 -15 -6 -20 -18 -17 -38
1 -5 -5 -6 -14 -2 -11 4 -14 2 -9 -6 5 -8 2 -9 -9 -5 -11 4 -21 -1 -28 -16 -7
-12 -8 -19 -4 -15 4 4 16 3 27 -3 15 -8 17 -13 7 -25 -6 -8 -16 -14 -21 -14
-6 0 -5 7 2 15 9 10 9 15 1 15 -6 0 -11 -5 -11 -11 0 -5 -6 -7 -12 -3 -10 6
-10 4 0 -7 19 -20 14 -34 -6 -16 -17 15 -18 15 -19 -6 0 -12 1 -16 4 -9 3 6 9
10 13 7 5 -3 7 -12 4 -20 -4 -8 -11 -12 -18 -8 -7 4 -7 1 1 -9 7 -8 10 -18 6
-21 -9 -10 -25 -9 -19 1 2 4 -4 9 -15 9 -18 2 -17 0 5 -18 15 -11 23 -25 20
-30 -3 -6 -11 -3 -19 7 -15 22 -42 26 -42 8 0 -17 17 -19 17 -1 0 6 9 1 20
-13 21 -28 18 -39 -5 -20 -10 8 -15 9 -15 1 0 -6 5 -11 11 -11 5 0 7 -5 4 -10
-4 -6 -11 -8 -16 -5 -5 3 -6 -2 -2 -11 5 -13 3 -15 -8 -9 -8 4 -11 5 -7 0 4
-4 3 -14 -3 -21 -8 -10 -5 -12 17 -8 22 4 25 3 16 -9 -7 -8 -10 -16 -7 -19 3
-3 -2 -11 -11 -19 -15 -12 -16 -11 -10 9 5 14 3 22 -4 22 -6 0 -8 -4 -5 -10 3
-5 1 -10 -6 -10 -8 0 -9 -3 0 -13 11 -14 5 -27 -11 -27 -5 0 -6 6 -2 13 4 6 4
9 -1 5 -4 -4 -13 -4 -19 2 -8 6 -12 3 -12 -9 0 -12 5 -17 15 -13 10 4 12 1 6
-9 -7 -10 -2 -9 17 3 15 10 29 14 32 9 3 -4 -6 -13 -20 -20 -32 -14 -23 -30
17 -27 36 3 49 19 44 58 -2 15 1 30 6 34 5 3 7 10 4 15 -4 5 -2 9 3 9 5 0 8
10 7 23 -3 31 5 48 19 40 6 -3 8 -3 4 2 -4 4 -3 14 3 22 6 7 8 13 4 13 -4 0 1
8 12 18 10 9 14 13 7 9 -13 -9 -27 7 -31 35 -2 12 3 16 17 13 13 -3 28 9 50
38 37 50 37 57 3 57 -21 0 -24 3 -13 9 8 6 17 8 21 5 4 -2 10 0 14 5 3 6 12 8
20 4 18 -6 20 8 3 25 -9 9 -9 12 1 12 7 0 10 4 7 9 -3 4 3 16 14 26 11 10 17
22 14 26 -3 5 0 9 7 9 7 0 4 7 -7 15 -10 8 -14 14 -9 13 6 -2 12 2 13 7 2 6 9
16 14 23 9 11 13 11 20 0 6 -8 7 -4 3 12 -5 21 -4 23 7 10 7 -8 19 -16 26 -17
15 -4 16 13 2 22 -6 4 0 18 15 37 30 35 24 56 -10 34 -22 -15 -25 -14 -35 2
-11 16 -11 16 -6 -2z m37 -40 c-12 -12 -18 -26 -14 -31 5 -4 2 -5 -5 0 -10 5
-11 10 -3 18 7 7 7 15 -2 26 -9 11 -9 13 0 8 6 -4 14 -3 18 3 4 6 11 8 16 4 6
-4 2 -15 -10 -28z m-75 -69 c2 -14 -1 -15 -17 -6 -11 5 -17 15 -13 20 9 14 27
6 30 -14z m-10 -52 c2 -15 -11 -28 -33 -31 -16 -3 -5 23 13 30 9 3 12 11 8 18
-4 7 -3 9 1 5 5 -4 10 -14 11 -22z m-52 -96 c-3 -5 -10 -7 -15 -3 -5 3 -7 10
-3 15 3 5 10 7 15 3 5 -3 7 -10 3 -15z m-44 -39 c0 -5 9 -7 20 -5 11 2 18 0
15 -5 -5 -9 -19 -8 -47 5 -22 9 -24 27 -3 19 8 -4 15 -10 15 -14z m6 -52 c-9
-12 -23 -23 -32 -24 -13 -2 -12 3 7 21 30 30 45 32 25 3z m-51 -97 c-1 -11 -7
-26 -14 -35 -7 -8 -14 -23 -16 -33 -2 -10 -4 -19 -5 -20 -2 -2 -4 -12 -5 -23
-1 -11 -3 -22 -4 -25 0 -3 -1 -8 -2 -12 0 -5 -5 -13 -10 -20 -7 -7 -6 -13 0
-17 6 -4 7 -14 4 -22 -5 -13 -7 -13 -14 -2 -5 7 -9 8 -9 3 0 -6 -10 -11 -22
-12 -21 -2 -20 0 5 13 22 12 26 18 18 28 -8 10 -7 17 4 26 8 7 13 16 10 20 -3
5 -1 11 5 15 15 9 1 27 -16 21 -11 -4 -11 0 2 19 9 14 20 22 25 19 5 -3 10 0
10 5 2 11 5 26 9 39 3 8 6 23 8 35 4 17 19 -3 17 -22z"/>
<path d="M513 3135 c0 -8 4 -12 9 -9 5 3 6 10 3 15 -9 13 -12 11 -12 -6z"/>
<path d="M4440 3630 c6 -11 12 -20 14 -20 2 0 2 9 -1 20 -3 11 -9 20 -15 20
-5 0 -4 -9 2 -20z"/>
<path d="M678 3603 c7 -3 16 -2 19 1 4 3 -2 6 -13 5 -11 0 -14 -3 -6 -6z"/>
<path d="M595 3531 c-3 -5 -2 -12 3 -15 5 -3 9 1 9 9 0 17 -3 19 -12 6z"/>
<path d="M598 3493 c7 -3 16 -2 19 1 4 3 -2 6 -13 5 -11 0 -14 -3 -6 -6z"/>
<path d="M594 3451 c13 -14 14 -20 4 -24 -7 -2 -9 -8 -5 -13 10 -11 27 15 20
32 -2 7 -12 15 -21 19 -14 5 -13 3 2 -14z"/>
<path d="M558 3433 c7 -3 16 -2 19 1 4 3 -2 6 -13 5 -11 0 -14 -3 -6 -6z"/>
<path d="M550 3400 c0 -5 5 -10 11 -10 5 0 7 5 4 10 -3 6 -8 10 -11 10 -2 0
-4 -4 -4 -10z"/>
<path d="M535 3370 c-4 -6 -10 -8 -15 -5 -5 3 -11 1 -15 -4 -3 -6 4 -8 16 -6
15 3 19 0 15 -11 -3 -8 -2 -12 3 -9 6 3 9 14 8 25 -1 23 -3 24 -12 10z"/>
<path d="M470 3306 c0 -2 7 -7 16 -10 8 -3 12 -2 9 4 -6 10 -25 14 -25 6z"/>
<path d="M369 3163 c-13 -16 -12 -17 4 -4 9 7 17 15 17 17 0 8 -8 3 -21 -13z"/>
<path d="M439 3168 c15 -21 31 -23 31 -6 0 6 -3 8 -7 5 -3 -4 -13 -1 -22 6
-14 11 -14 10 -2 -5z"/>
<path d="M395 3129 c-4 -6 -5 -12 -2 -15 2 -3 7 2 10 11 7 17 1 20 -8 4z"/>
<path d="M433 3103 c4 -3 2 -12 -4 -20 -9 -9 -8 -13 0 -13 6 0 11 2 11 4 0 2
3 11 6 20 4 10 1 16 -7 16 -7 0 -9 -3 -6 -7z"/>
<path d="M366 3062 c-3 -5 1 -9 9 -9 8 0 12 4 9 9 -3 4 -7 8 -9 8 -2 0 -6 -4
-9 -8z"/>
<path d="M416 2996 c6 -15 4 -17 -6 -11 -9 6 -11 4 -5 -4 5 -9 10 -10 18 -2 8
8 7 14 -2 24 -10 10 -11 8 -5 -7z"/>
<path d="M375 2980 c-3 -5 -1 -10 4 -10 6 0 11 5 11 10 0 6 -2 10 -4 10 -3 0
-8 -4 -11 -10z"/>
<path d="M432 2939 c1 -17 4 -25 8 -19 5 8 9 7 13 -4 10 -25 34 -8 32 22 -1
21 -6 27 -27 29 -23 1 -27 -2 -26 -28z m43 1 c-2 -8 -4 -19 -4 -24 -1 -10 -30
24 -31 34 0 3 8 6 19 6 11 0 17 -6 16 -16z"/>
<path d="M395 2930 c-3 -6 1 -7 9 -4 18 7 21 14 7 14 -6 0 -13 -4 -16 -10z"/>
<path d="M387 2897 c2 -4 -1 -14 -7 -22 -21 -25 -5 -16 18 9 19 23 19 25 2 23
-10 -1 -16 -5 -13 -10z"/>
<path d="M330 2886 c0 -2 7 -7 16 -10 8 -3 12 -2 9 4 -6 10 -25 14 -25 6z"/>
<path d="M395 2860 c-3 -5 -1 -10 4 -10 6 0 11 5 11 10 0 6 -2 10 -4 10 -3 0
-8 -4 -11 -10z"/>
<path d="M356 2839 c3 -5 10 -6 16 -3 8 5 9 1 5 -10 -4 -11 -3 -15 4 -11 14
10 6 28 -14 31 -9 1 -15 -2 -11 -7z"/>
<path d="M386 2793 c-6 -14 -5 -15 5 -6 7 7 10 15 7 18 -3 3 -9 -2 -12 -12z"/>
<path d="M335 2780 c-3 -5 -1 -10 4 -10 6 0 11 5 11 10 0 6 -2 10 -4 10 -3 0
-8 -4 -11 -10z"/>
<path d="M365 2699 c-6 -8 -4 -10 5 -4 9 5 10 1 6 -16 -6 -21 -6 -22 5 -6 7
13 8 22 1 29 -6 6 -12 6 -17 -3z"/>
<path d="M337 2653 c-10 -9 -9 -23 1 -23 5 0 9 7 9 15 0 17 -1 18 -10 8z"/>
<path d="M355 2610 c-8 -13 3 -30 18 -30 7 0 6 4 -3 10 -13 9 -13 11 0 20 9 6
10 10 3 10 -6 0 -15 -4 -18 -10z"/>
<path d="M320 2600 c-9 -6 -10 -10 -3 -10 6 0 15 5 18 10 8 12 4 12 -15 0z"/>
<path d="M334 2569 c-3 -6 -2 -15 3 -20 5 -5 9 -1 9 11 0 23 -2 24 -12 9z"/>
<path d="M374 2550 c1 -9 11 -15 26 -14 19 1 25 -4 26 -22 1 -13 -1 -22 -5
-20 -4 3 -13 1 -21 -4 -12 -7 -12 -12 -2 -22 6 -6 12 -18 12 -26 0 -9 -7 -6
-20 9 -10 13 -19 18 -20 12 0 -7 5 -13 10 -13 6 0 10 -6 10 -13 0 -22 34 -36
57 -23 30 16 31 21 5 49 -13 14 -19 28 -14 31 11 7 11 24 -1 44 -5 7 -3 12 3
12 6 0 8 5 4 11 -4 8 -9 7 -15 -2 -5 -8 -9 -10 -9 -6 0 4 -9 3 -19 -3 -14 -7
-21 -7 -24 3 -2 7 -3 6 -3 -3z m76 -102 c0 -5 -4 -6 -10 -3 -5 3 -10 1 -10 -4
0 -6 6 -11 13 -11 8 0 7 -3 -3 -9 -20 -14 -32 -3 -20 19 12 22 13 30 3 29 -17
-3 -24 2 -18 12 7 11 45 -17 45 -33z"/>
<path d="M314 2526 c1 -8 5 -18 8 -22 4 -3 5 1 4 10 -1 8 -5 18 -8 22 -4 3 -5
-1 -4 -10z"/>
<path d="M350 2519 c0 -5 5 -7 10 -4 6 3 10 8 10 11 0 2 -4 4 -10 4 -5 0 -10
-5 -10 -11z"/>
<path d="M386 2514 c-11 -8 -16 -14 -10 -14 13 0 39 18 34 24 -3 2 -14 -2 -24
-10z"/>
<path d="M350 2490 c8 -5 20 -10 25 -10 6 0 3 5 -5 10 -8 5 -19 10 -25 10 -5
0 -3 -5 5 -10z"/>
<path d="M353 2403 c0 -18 1 -32 2 -30 12 14 25 48 17 43 -6 -3 -12 0 -14 6
-3 7 -5 -2 -5 -19z"/>
<path d="M436 2314 c-3 -9 -4 -19 -1 -22 3 -3 5 1 5 9 0 11 2 11 10 -1 5 -8
10 -10 10 -5 0 6 -4 16 -9 23 -6 11 -10 10 -15 -4z"/>
<path d="M360 2306 c0 -2 7 -7 16 -10 8 -3 12 -2 9 4 -6 10 -25 14 -25 6z"/>
<path d="M335 2279 c-3 -4 2 -6 10 -5 21 3 28 13 10 13 -9 0 -18 -4 -20 -8z"/>
<path d="M370 2240 c0 -5 5 -10 10 -10 6 0 10 5 10 10 0 6 -4 10 -10 10 -5 0
-10 -4 -10 -10z"/>
<path d="M350 2197 c0 -2 6 -10 14 -16 11 -9 16 -9 22 1 4 7 4 10 -1 6 -4 -4
-14 -3 -22 3 -7 6 -13 9 -13 6z"/>
<path d="M406 2175 c-9 -7 -16 -16 -16 -20 0 -5 9 0 20 10 11 10 20 13 20 7 0
-6 -5 -14 -11 -18 -8 -5 -7 -10 4 -16 9 -5 14 -15 11 -23 -7 -17 7 -20 22 -5
6 6 15 5 24 -1 13 -10 13 -10 0 -6 -9 3 -25 -2 -35 -10 -18 -14 -19 -15 -1 -9
13 5 17 2 13 -9 -4 -8 -2 -17 3 -20 14 -9 7 -41 -15 -65 -10 -11 -15 -23 -12
-27 4 -3 7 -1 7 5 0 6 7 9 15 6 8 -4 15 -13 15 -21 0 -9 6 -13 14 -10 7 3 19
0 25 -6 16 -16 24 -2 12 21 -8 15 -8 22 2 26 6 3 3 4 -8 3 -14 -1 -20 4 -21
21 -1 12 3 25 7 28 5 3 4 14 -1 25 -6 11 -15 17 -21 14 -5 -4 -9 -2 -9 4 0 5
9 13 21 16 21 7 21 7 -3 32 -12 13 -23 32 -23 40 0 20 -36 24 -59 8z m49 -6
c-4 -5 1 -20 11 -32 11 -12 15 -19 10 -15 -5 4 -16 2 -25 -4 -9 -7 -13 -8 -9
-4 4 5 3 15 -3 23 -9 10 -8 17 1 28 14 17 24 20 15 4z m37 -114 c4 -5 4 -14 0
-20 -12 -19 -11 -39 2 -55 7 -8 16 -22 20 -30 4 -8 0 -6 -8 4 -9 11 -16 14
-16 8 0 -7 -7 -5 -18 6 -17 15 -17 19 -4 35 8 9 11 17 7 17 -5 0 -4 5 3 12 9
9 7 15 -6 25 -13 10 -14 13 -2 11 8 -2 18 -7 22 -13z"/>
<path d="M347 2119 c7 -7 15 -10 18 -7 3 3 -2 9 -12 12 -14 6 -15 5 -6 -5z"/>
<path d="M405 2120 c3 -5 8 -10 11 -10 2 0 4 5 4 10 0 6 -5 10 -11 10 -5 0 -7
-4 -4 -10z"/>
<path d="M390 2100 c0 -6 7 -10 15 -10 8 0 15 2 15 4 0 2 -7 6 -15 10 -8 3
-15 1 -15 -4z"/>
<path d="M419 2068 c-6 -22 -5 -38 3 -38 6 0 8 6 5 14 -3 8 -1 17 6 20 9 3 9
5 0 5 -7 1 -13 0 -14 -1z"/>
<path d="M440 2040 c0 -5 5 -10 10 -10 6 0 10 5 10 10 0 6 -4 10 -10 10 -5 0
-10 -4 -10 -10z"/>
<path d="M428 2013 c7 -3 16 -2 19 1 4 3 -2 6 -13 5 -11 0 -14 -3 -6 -6z"/>
<path d="M390 1956 c7 -7 13 -7 20 0 6 6 3 10 -10 10 -13 0 -16 -4 -10 -10z"/>
<path d="M430 1940 c0 -6 7 -10 15 -10 8 0 15 2 15 4 0 2 -7 6 -15 10 -8 3
-15 1 -15 -4z"/>
<path d="M469 1923 c-20 -12 -21 -13 -3 -8 13 3 26 -1 35 -11 12 -15 11 -16
-9 -10 -14 5 -22 3 -22 -4 0 -6 5 -8 12 -4 7 5 9 2 5 -9 -4 -10 3 -21 19 -32
35 -23 23 -30 -15 -10 -19 9 -29 20 -25 27 4 7 3 8 -5 4 -9 -6 -9 -11 -1 -21
7 -8 8 -20 4 -27 -6 -10 -3 -9 9 1 15 12 21 9 19 -10 -1 -4 9 -5 21 -2 18 4
19 3 7 -6 -8 -6 -10 -11 -4 -11 5 0 15 5 21 11 9 9 11 4 9 -17 -2 -37 -14 -56
-28 -48 -7 4 -8 2 -4 -5 8 -13 25 -5 44 21 7 10 17 16 22 13 5 -3 8 4 7 15 -1
11 -4 20 -7 20 -3 0 -15 6 -26 14 -19 14 -19 14 1 13 15 -2 19 3 17 18 -2 11
-3 28 -3 38 0 12 -5 17 -15 13 -18 -7 -49 4 -35 13 6 4 3 11 -7 18 -14 8 -24
7 -43 -4z m80 -57 c32 -33 8 -44 -36 -16 -16 11 -19 17 -11 27 15 18 21 16 47
-11z m17 -81 c-1 -8 -5 -17 -8 -21 -5 -4 -4 16 1 34 3 9 9 -1 7 -13z"/>
<path d="M518 1871 c8 -4 14 -12 15 -17 1 -5 8 -9 15 -11 10 -1 8 4 -4 18 -9
10 -22 19 -28 19 -6 0 -5 -4 2 -9z"/>
<path d="M4560 1924 c-8 -9 -9 -14 -2 -14 6 0 12 3 15 8 2 4 2 2 1 -5 -2 -7 1
-15 6 -18 6 -4 10 -11 10 -18 0 -6 -6 -2 -14 8 -13 18 -15 18 -30 2 -10 -9
-26 -17 -36 -17 -10 0 -21 -7 -24 -16 -3 -8 -2 -13 3 -9 5 3 11 2 14 -2 2 -5
3 -3 1 3 -1 6 4 11 11 11 7 0 11 -6 8 -14 -3 -7 2 -13 11 -13 9 0 15 -3 15 -7
-3 -21 3 -33 17 -33 8 0 12 -5 9 -10 -4 -6 -11 -7 -17 -4 -7 4 -8 2 -4 -4 12
-20 38 -1 33 24 -2 13 1 22 7 21 6 -1 10 4 8 12 -3 12 0 12 12 2 11 -10 17 -8
29 9 9 13 17 17 20 10 3 -6 4 -5 3 2 -1 7 -13 13 -27 13 -24 0 -55 37 -45 54
10 16 -22 20 -34 5z m73 -79 c-3 -9 -8 -14 -10 -11 -3 3 -2 9 2 15 9 16 15 13
8 -4z"/>
<path d="M432 1900 c2 -9 -3 -14 -12 -12 -8 2 -11 0 -7 -4 4 -4 14 -9 21 -10
14 -2 16 20 2 33 -4 4 -6 1 -4 -7z"/>
<path d="M454 1778 c-2 -4 7 -5 22 -2 18 3 23 1 18 -7 -4 -8 -3 -9 5 -5 6 4 9
11 6 16 -6 10 -44 9 -51 -2z"/>
<path d="M516 1765 c-3 -8 -1 -15 4 -15 6 0 10 7 10 15 0 8 -2 15 -4 15 -2 0
-6 -7 -10 -15z"/>
<path d="M490 1720 c0 -5 5 -10 11 -10 5 0 7 5 4 10 -3 6 -8 10 -11 10 -2 0
-4 -4 -4 -10z"/>
<path d="M510 1682 c0 -5 7 -9 15 -9 8 0 15 4 15 9 0 4 -7 8 -15 8 -8 0 -15
-4 -15 -8z"/>
<path d="M550 1660 c0 -6 5 -8 12 -4 8 5 9 2 5 -9 -3 -10 -2 -17 4 -17 14 0 7
32 -8 38 -7 2 -13 -1 -13 -8z"/>
<path d="M570 1562 c0 -4 10 -9 22 -9 18 -2 20 0 8 7 -18 12 -30 13 -30 2z"/>
<path d="M574 1515 c0 -13 3 -22 7 -19 8 4 6 30 -2 38 -3 3 -5 -5 -5 -19z"/>
<path d="M628 1513 c6 -2 9 -10 6 -15 -4 -7 -2 -8 4 -4 18 11 14 26 -5 25 -11
0 -13 -3 -5 -6z"/>
<path d="M607 1479 c7 -7 15 -10 18 -7 3 3 -2 9 -12 12 -14 6 -15 5 -6 -5z"/>
<path d="M676 1342 c-3 -4 4 -9 15 -9 23 -2 25 3 4 10 -8 4 -16 3 -19 -1z"/>
<path d="M630 1321 c0 -6 4 -13 10 -16 6 -3 7 1 4 9 -7 18 -14 21 -14 7z"/>
<path d="M735 1321 c-3 -5 0 -13 6 -17 8 -5 9 -3 4 6 -6 9 -1 10 16 5 19 -5
21 -4 9 4 -19 13 -27 14 -35 2z"/>
<path d="M710 1297 c0 -2 6 -10 14 -16 11 -9 16 -9 22 1 4 7 4 10 -1 6 -4 -4
-14 -3 -22 3 -7 6 -13 9 -13 6z"/>
<path d="M776 1243 c-6 -14 -5 -15 5 -6 7 7 10 15 7 18 -3 3 -9 -2 -12 -12z"/>
<path d="M838 1213 c7 -3 16 -2 19 1 4 3 -2 6 -13 5 -11 0 -14 -3 -6 -6z"/>
<path d="M845 1100 c-3 -6 1 -7 9 -4 18 7 21 14 7 14 -6 0 -13 -4 -16 -10z"/>
<path d="M955 1081 c-6 -11 13 -26 22 -17 4 3 1 6 -6 6 -7 0 -9 5 -6 10 3 6 4
10 1 10 -3 0 -7 -4 -11 -9z"/>
<path d="M960 1046 c0 -2 8 -10 18 -17 15 -13 16 -12 3 4 -13 16 -21 21 -21
13z"/>
<path d="M976 1002 c-2 -4 -1 -14 4 -22 7 -11 9 -9 7 8 -1 24 -3 26 -11 14z"/>
<path d="M1040 1000 c-8 -5 -10 -10 -5 -10 6 0 17 5 25 10 8 5 11 10 5 10 -5
0 -17 -5 -25 -10z"/>
<path d="M1059 988 c-5 -17 -4 -50 3 -54 5 -3 7 0 6 8 -2 7 3 12 10 11 6 -2
12 2 12 7 0 6 -7 10 -16 10 -8 0 -12 5 -9 10 3 6 4 10 1 10 -3 0 -6 -1 -7 -2z"/>
<path d="M1108 948 c5 -5 16 -8 23 -6 8 3 3 7 -10 11 -17 4 -21 3 -13 -5z"/>
<path d="M1150 925 c0 -8 4 -15 10 -15 5 0 7 7 4 15 -4 8 -8 15 -10 15 -2 0
-4 -7 -4 -15z"/>
<path d="M1094 914 c1 -8 4 -15 7 -16 2 -2 3 -1 2 1 -2 2 2 9 7 16 7 8 5 12
-4 12 -8 0 -13 -6 -12 -13z"/>
<path d="M1135 889 c-4 -6 -5 -12 -2 -15 2 -3 7 2 10 11 7 17 1 20 -8 4z"/>
<path d="M3550 879 c0 -5 5 -7 10 -4 6 3 10 8 10 11 0 2 -4 4 -10 4 -5 0 -10
-5 -10 -11z"/>
<path d="M4100 881 c0 -10 19 -25 25 -20 1 2 -3 10 -11 17 -8 7 -14 8 -14 3z"/>
<path d="M1195 851 c-3 -5 -2 -12 3 -15 5 -3 9 1 9 9 0 17 -3 19 -12 6z"/>
<path d="M1171 807 c-13 -21 -12 -21 5 -5 10 10 16 20 13 22 -3 3 -11 -5 -18
-17z"/>
<path d="M3456 818 c3 -5 10 -6 15 -3 13 9 11 12 -6 12 -8 0 -12 -4 -9 -9z"/>
<path d="M1345 789 c-4 -6 -4 -13 -1 -16 3 -4 6 -1 6 6 0 7 5 9 12 5 7 -4 8
-3 4 4 -9 15 -13 15 -21 1z"/>
<path d="M1550 771 c0 -5 7 -15 17 -22 15 -13 15 -12 4 9 -12 23 -21 28 -21
13z"/>
<path d="M3313 767 c0 -8 6 -14 14 -14 9 0 10 4 2 14 -6 7 -12 13 -14 13 -1 0
-2 -6 -2 -13z"/>
<path d="M1333 745 c0 -8 4 -12 9 -9 5 3 6 10 3 15 -9 13 -12 11 -12 -6z"/>
<path d="M3181 733 c-1 -6 4 -15 9 -18 6 -4 8 -10 5 -15 -3 -5 -2 -11 3 -14 4
-2 8 6 8 19 0 13 -3 22 -7 19 -4 -2 -10 2 -12 8 -4 9 -6 10 -6 1z"/>
<path d="M1426 722 c-2 -4 4 -8 14 -8 10 0 16 4 14 8 -3 4 -9 8 -14 8 -5 0
-11 -4 -14 -8z"/>
<path d="M3236 713 c-6 -14 -5 -15 5 -6 7 7 10 15 7 18 -3 3 -9 -2 -12 -12z"/>
<path d="M3296 718 c3 -5 10 -6 15 -3 13 9 11 12 -6 12 -8 0 -12 -4 -9 -9z"/>
<path d="M1476 707 c3 -10 9 -15 12 -12 3 3 0 11 -7 18 -10 9 -11 8 -5 -6z"/>
<path d="M1560 691 c0 -6 4 -13 10 -16 6 -3 7 1 4 9 -7 18 -14 21 -14 7z"/>
<path d="M3040 696 c0 -2 8 -10 18 -17 15 -13 16 -12 3 4 -13 16 -21 21 -21
13z"/>
<path d="M1511 673 c0 -12 2 -13 6 -5 4 10 8 10 21 0 15 -12 16 -11 3 5 -7 9
-17 17 -22 17 -5 0 -9 -8 -8 -17z"/>
<path d="M1760 675 c-7 -8 -15 -13 -19 -11 -4 3 -13 -4 -20 -16 -7 -11 -8 -17
-2 -13 6 3 11 2 11 -4 0 -5 -6 -12 -12 -15 -7 -3 0 -3 16 -1 16 2 32 8 35 12
9 13 34 10 39 -5 2 -7 -2 -10 -11 -6 -8 3 -18 1 -22 -5 -4 -7 0 -8 11 -4 12 4
15 3 10 -5 -4 -7 -3 -12 3 -12 5 0 12 8 15 18 6 18 36 27 36 10 0 -4 -5 -8
-12 -8 -6 0 -8 -3 -5 -6 4 -4 18 1 31 10 29 18 46 21 46 6 0 -6 -6 -9 -12 -8
-7 2 -12 -3 -10 -11 2 -8 -3 -11 -12 -8 -17 7 -32 -8 -18 -17 5 -3 20 2 33 12
26 18 64 27 55 14 -3 -5 1 -18 9 -28 9 -10 15 -14 14 -9 -3 21 1 35 11 35 5 0
7 -7 4 -15 -7 -18 7 -20 25 -2 10 10 12 9 11 -3 -1 -8 -2 -22 -1 -30 1 -13 3
-13 10 -1 5 8 6 21 3 30 -5 13 -3 14 10 4 8 -7 18 -10 21 -6 4 3 7 1 7 -6 0
-7 5 -9 10 -6 13 8 42 -14 35 -26 -3 -4 5 -13 17 -19 20 -10 21 -10 6 3 -12
10 -14 17 -7 24 7 7 8 17 1 29 -5 11 -7 25 -5 32 3 6 -1 12 -7 12 -7 0 -10 -8
-7 -19 3 -14 1 -18 -9 -14 -8 3 -12 9 -9 13 9 14 -15 22 -30 10 -9 -8 -15 -8
-20 0 -3 6 -10 8 -15 5 -4 -3 -13 2 -20 10 -13 15 -35 10 -25 -6 4 -5 2 -9 -4
-9 -5 0 -12 4 -16 10 -3 5 -12 7 -19 4 -7 -3 -20 2 -29 10 -8 8 -17 12 -21 9
-3 -3 -12 -1 -19 5 -8 7 -17 9 -20 5 -4 -3 -7 0 -7 7 0 9 -4 8 -13 -4 -13 -18
-15 -17 -34 8 -24 30 -26 31 -43 11z m41 -22 c13 -14 17 -22 9 -17 -24 14 -38
13 -51 -2 -9 -11 -14 -12 -20 -3 -5 9 18 41 37 49 0 0 11 -12 25 -27z m77 -12
c2 -1 0 -6 -3 -11 -5 -8 -11 -8 -19 -1 -7 6 -17 7 -21 3 -5 -4 -5 -2 -2 5 6 9
18 10 45 4z m152 -36 c0 4 6 2 14 -4 10 -8 16 -9 21 -1 3 5 12 10 18 9 8 0 7
-3 -2 -6 -11 -5 -11 -7 0 -14 10 -6 6 -8 -11 -5 -14 3 -26 5 -27 7 -8 5 -29 4
-38 -2 -7 -5 -11 1 -11 16 0 23 1 23 18 8 10 -9 18 -13 18 -8z m-65 6 c3 -5 2
-12 -3 -15 -5 -3 -9 1 -9 9 0 17 3 19 12 6z m165 -53 c0 -6 -6 -5 -15 2 -8 7
-15 14 -15 16 0 2 7 1 15 -2 8 -4 15 -11 15 -16z"/>
<path d="M1759 653 c-12 -16 -12 -17 2 -6 9 7 20 9 24 5 5 -4 5 -1 1 6 -9 16
-11 15 -27 -5z"/>
<path d="M3126 682 c-2 -4 4 -8 14 -8 10 0 16 4 14 8 -3 4 -9 8 -14 8 -5 0
-11 -4 -14 -8z"/>
<path d="M1594 645 c0 -13 3 -22 7 -19 8 4 6 30 -2 38 -3 3 -5 -5 -5 -19z"/>
<path d="M3034 655 c-4 -8 -11 -12 -17 -8 -5 3 -7 1 -4 -5 8 -11 44 -5 53 9 3
5 -3 6 -12 2 -12 -4 -15 -3 -10 5 4 7 5 12 1 12 -3 0 -8 -7 -11 -15z"/>
<path d="M1571 644 c0 -11 3 -14 6 -6 3 7 2 16 -1 19 -3 4 -6 -2 -5 -13z"/>
<path d="M1430 641 c0 -6 4 -13 10 -16 6 -3 7 1 4 9 -7 18 -14 21 -14 7z"/>
<path d="M1651 633 c0 -10 3 -13 5 -7 3 7 15 10 27 8 21 -4 21 -4 2 5 -29 14
-35 13 -34 -6z"/>
<path d="M2975 640 c3 -5 8 -10 11 -10 2 0 4 5 4 10 0 6 -5 10 -11 10 -5 0 -7
-4 -4 -10z"/>
<path d="M2936 618 c-6 -18 -4 -49 2 -43 6 6 10 55 5 55 -2 0 -5 -6 -7 -12z"/>
<path d="M2975 611 c-3 -5 -2 -12 3 -15 5 -3 9 1 9 9 0 17 -3 19 -12 6z"/>
<path d="M3069 603 c-13 -16 -12 -17 4 -4 16 13 21 21 13 21 -2 0 -10 -8 -17
-17z"/>
<path d="M2230 585 c-23 -25 -23 -25 -4 -39 16 -13 20 -12 27 0 4 8 6 18 2 23
-3 5 -1 12 5 16 5 3 10 -1 10 -10 0 -9 4 -13 10 -10 5 3 15 -3 22 -14 9 -15
15 -17 25 -9 9 7 17 7 26 0 9 -8 17 -3 29 18 16 28 8 54 -8 29 -5 -9 -10 -8
-19 4 -13 17 -39 17 -57 -1 -9 -9 -16 -8 -28 3 -15 13 -19 12 -40 -10z m23 4
c-6 -6 -9 -18 -6 -25 5 -14 -8 -19 -20 -7 -7 6 20 43 32 43 3 0 0 -5 -6 -11z
m99 -7 c9 -9 15 -9 26 1 13 11 14 9 1 -10 -15 -25 -24 -28 -35 -12 -4 8 -9 7
-14 -2 -7 -10 -11 -10 -24 0 -12 10 -13 17 -6 26 13 15 35 14 52 -3z"/>
<path d="M2305 580 c-3 -5 -1 -11 4 -14 5 -4 13 -2 16 4 5 8 12 7 23 -2 14
-10 15 -10 5 2 -15 16 -41 22 -48 10z"/>
<path d="M1713 587 c0 -8 6 -14 14 -14 9 0 10 4 2 14 -6 7 -12 13 -14 13 -1 0
-2 -6 -2 -13z"/>
<path d="M1754 589 c1 -7 10 -13 19 -15 9 -1 15 2 11 7 -3 5 -9 7 -14 4 -4 -3
-11 0 -13 5 -3 6 -4 5 -3 -1z"/>
<path d="M1815 581 c-3 -5 0 -13 6 -17 7 -4 9 -3 5 4 -3 5 0 13 6 15 9 4 10 6
1 6 -6 1 -14 -3 -18 -8z"/>
<path d="M1910 580 c0 -6 4 -9 9 -5 5 3 12 -5 14 -17 5 -22 5 -21 4 1 -2 24
-27 44 -27 21z"/>
<path d="M2815 580 c-3 -6 1 -7 10 -4 11 5 14 2 9 -12 -5 -15 -4 -16 4 -4 11
15 7 30 -8 30 -5 0 -12 -4 -15 -10z"/>
<path d="M2663 573 c-15 -5 -17 -23 -4 -23 5 0 11 7 15 15 3 8 4 15 3 14 -1 0
-8 -3 -14 -6z"/>
<path d="M1880 566 c0 -2 7 -9 15 -16 13 -11 14 -10 9 4 -5 14 -24 23 -24 12z"/>
<path d="M2600 555 c-7 -9 -10 -18 -6 -22 3 -3 6 -1 6 6 0 9 6 9 23 1 20 -10
20 -10 5 3 -10 8 -15 17 -11 20 3 4 4 7 1 7 -3 0 -11 -7 -18 -15z"/>
<path d="M2710 566 c0 -2 7 -7 16 -10 8 -3 12 -2 9 4 -6 10 -25 14 -25 6z"/>
<path d="M2756 562 c-3 -5 1 -9 9 -9 8 0 12 4 9 9 -3 4 -7 8 -9 8 -2 0 -6 -4
-9 -8z"/>
<path d="M1996 547 c3 -10 9 -15 12 -12 3 3 0 11 -7 18 -10 9 -11 8 -5 -6z"/>
<path d="M2680 556 c0 -2 7 -7 16 -10 8 -3 12 -2 9 4 -6 10 -25 14 -25 6z"/>
<path d="M1815 540 c3 -5 8 -10 11 -10 2 0 4 5 4 10 0 6 -5 10 -11 10 -5 0 -7
-4 -4 -10z"/>
<path d="M1950 546 c0 -2 9 -6 20 -9 11 -3 18 -1 14 4 -5 9 -34 13 -34 5z"/>
<path d="M2070 540 c0 -5 7 -7 15 -4 8 4 15 8 15 10 0 2 -7 4 -15 4 -8 0 -15
-4 -15 -10z"/>
<path d="M2260 528 c-10 -21 -10 -21 3 -5 17 21 27 22 27 2 0 -8 5 -15 10 -15
7 0 7 6 0 20 -14 26 -27 25 -40 -2z"/>
<path d="M2855 540 c3 -5 8 -10 11 -10 2 0 4 5 4 10 0 6 -5 10 -11 10 -5 0 -7
-4 -4 -10z"/>
<path d="M2201 524 c0 -11 3 -14 6 -6 3 7 2 16 -1 19 -3 4 -6 -2 -5 -13z"/>
<path d="M2381 524 c0 -11 3 -14 6 -6 3 7 2 16 -1 19 -3 4 -6 -2 -5 -13z"/>
<path d="M2441 524 c0 -11 3 -14 6 -6 3 7 2 16 -1 19 -3 4 -6 -2 -5 -13z"/>
<path d="M2501 524 c0 -11 3 -14 6 -6 3 7 2 16 -1 19 -3 4 -6 -2 -5 -13z"/>
<path d="M2736 527 c3 -10 9 -15 12 -12 3 3 0 11 -7 18 -10 9 -11 8 -5 -6z"/>
<path d="M1937 515 c-4 -8 -3 -16 1 -19 4 -3 9 4 9 15 2 23 -3 25 -10 4z"/>
<path d="M2030 526 c0 -2 7 -7 16 -10 8 -3 12 -2 9 4 -6 10 -25 14 -25 6z"/>
<path d="M2090 521 c0 -6 4 -13 10 -16 6 -3 7 1 4 9 -7 18 -14 21 -14 7z"/>
<path d="M2221 514 c0 -11 3 -14 6 -6 3 7 2 16 -1 19 -3 4 -6 -2 -5 -13z"/>
<path d="M2335 520 c3 -5 8 -10 11 -10 2 0 4 5 4 10 0 6 -5 10 -11 10 -5 0 -7
-4 -4 -10z"/>
<path d="M2461 514 c0 -11 3 -14 6 -6 3 7 2 16 -1 19 -3 4 -6 -2 -5 -13z"/>
<path d="M2765 520 c-3 -6 1 -7 9 -4 18 7 21 14 7 14 -6 0 -13 -4 -16 -10z"/>
<path d="M2327 499 c7 -7 15 -10 18 -7 3 3 -2 9 -12 12 -14 6 -15 5 -6 -5z"/>
<path d="M2274 468 l-19 -23 23 19 c21 18 27 26 19 26 -2 0 -12 -10 -23 -22z"/>
<path d="M2515 480 c3 -5 8 -10 11 -10 2 0 4 5 4 10 0 6 -5 10 -11 10 -5 0 -7
-4 -4 -10z"/>
<path d="M2196 467 c3 -10 9 -15 12 -12 3 3 0 11 -7 18 -10 9 -11 8 -5 -6z"/>
</g>
</svg>
