<?xml version="1.0" encoding="UTF-8" standalone="no"?>
<!-- Created with Inkscape (http://www.inkscape.org/) -->

<svg
   width="631.39722mm"
   height="657.34491mm"
   viewBox="0 0 631.39722 657.3449"
   version="1.1"
   id="svg1"
   xml:space="preserve"
   inkscape:version="1.3.2 (091e20e, 2023-11-25, custom)"
   sodipodi:docname="wave.svg"
   xmlns:inkscape="http://www.inkscape.org/namespaces/inkscape"
   xmlns:sodipodi="http://sodipodi.sourceforge.net/DTD/sodipodi-0.dtd"
   xmlns:xlink="http://www.w3.org/1999/xlink"
   xmlns="http://www.w3.org/2000/svg"
   xmlns:svg="http://www.w3.org/2000/svg"><sodipodi:namedview
     id="namedview1"
     pagecolor="#ffffff"
     bordercolor="#000000"
     borderopacity="0.25"
     inkscape:showpageshadow="2"
     inkscape:pageopacity="0.0"
     inkscape:pagecheckerboard="0"
     inkscape:deskcolor="#d1d1d1"
     inkscape:document-units="mm"
     inkscape:zoom="0.28819214"
     inkscape:cx="1152.0092"
     inkscape:cy="761.64464"
     inkscape:window-width="1920"
     inkscape:window-height="1111"
     inkscape:window-x="-9"
     inkscape:window-y="-7"
     inkscape:window-maximized="1"
     inkscape:current-layer="layer1" /><defs
     id="defs1"><linearGradient
       id="linearGradient7"
       inkscape:collect="always"><stop
         style="stop-color:#39334f;stop-opacity:1;"
         offset="0"
         id="stop7" /><stop
         style="stop-color:#39334f;stop-opacity:0;"
         offset="1"
         id="stop8" /></linearGradient><linearGradient
       inkscape:collect="always"
       xlink:href="#linearGradient7"
       id="linearGradient8"
       x1="318.48669"
       y1="-45.843384"
       x2="318.48697"
       y2="647.3067"
       gradientUnits="userSpaceOnUse"
       gradientTransform="matrix(0.98816486,0,0,1,0.79435531,0)" /></defs><g
     inkscape:label="Layer 1"
     inkscape:groupmode="layer"
     id="layer1"
     transform="translate(314.06996,8.6611441)"><path
       id="rect6"
       style="opacity:1;fill:url(#linearGradient8);stroke-width:1.5875;stroke-linecap:round;stroke-linejoin:round;paint-order:stroke fill markers"
       d="M 172.1723,5.1101083 56.955732,38.160804 75.100088,57.440764 -246.96072,185.97194 -310.46597,169.28768 V 648.68375 H 316.41922 V 42.85044 L 269.244,17.045297 Z" /><g
       id="g6"
       transform="matrix(5.5497719,0,0,5.5497719,-704.80729,-844.59922)"
       style="stroke-width:0.180188"><path
         style="fill:#6fb3b7;fill-opacity:1;stroke-width:0.286048;stroke-linecap:round;stroke-linejoin:round;paint-order:stroke fill markers"
         d="m 70.730607,175.81486 c 0,0 9.92737,0.12055 14.768852,-0.81148 22.345011,-4.30158 45.552601,-11.32342 67.839351,-11.52294 11.35891,-0.10169 30.83606,10.06229 30.83606,10.06229 l -0.1623,2.59672 c 0,0 -19.38784,-10.96015 -30.83606,-10.87376 -22.40919,0.1691 -45.6777,8.22723 -68.163938,12.00982 -4.806132,0.80848 -14.606556,0.64919 -14.606556,0.64919 z"
         id="path2"
         sodipodi:nodetypes="cssccsscc" /><path
         style="fill:#6fb3b7;fill-opacity:1;stroke-width:0.286048;stroke-linecap:round;stroke-linejoin:round;paint-order:stroke fill markers"
         d="m 70.749394,171.59832 c 1.869251,3.47182 13.476916,3.11041 13.127115,1.94441 -4.436066,-1.43616 -8.538147,-3.26745 -12.974213,-7.30014 z"
         id="path3"
         sodipodi:nodetypes="cccc" /><path
         id="path1"
         style="fill:#6fb3b7;fill-opacity:1;stroke-width:0.286048;stroke-linecap:round;stroke-linejoin:round;paint-order:stroke fill markers"
         d="m 160.60137,150.63375 c -0.89186,-0.0158 -1.79857,-0.009 -2.71818,0.0253 -26.39298,0.97094 -47.22923,25.83948 -73.195019,31.32316 -4.446504,0.93906 -12.3344,-3e-5 -13.63276,0.16226 v 4.21938 c 0,0 8.571192,1.33912 12.820923,0.81184 26.214596,-3.25255 44.132326,-24.50029 75.467236,-24.18199 14.68353,0.14916 24.66877,9.2506 24.66877,9.2506 v -15.90495 c 0,0 -10.03307,-5.46808 -23.41097,-5.7056 z m 1.01441,4.24522 c 5.59185,-0.0465 11.74243,0.46312 16.39176,3.57033 1.97137,1.31749 4.05764,5.84253 4.05764,5.84253 -2.94541,0.95609 -6.39819,-0.56401 -8.92659,-2.10994 l 4.05763,-0.32453 c 0.89461,-0.5964 -9.38207,-4.91845 -14.93139,-5.03122 -6.4554,-0.13119 -18.69735,2.34172 -19.63342,2.53266 -0.15486,0.0394 -0.27295,0.0641 -0.32867,0.0641 0,0 0.29193,-0.0566 0.32867,-0.0641 2.10057,-0.53495 12.82515,-4.42865 18.98437,-4.47983 z" /><path
         id="path4"
         style="fill:#6fb3b7;fill-opacity:1;stroke-width:0.286048;stroke-linecap:round;stroke-linejoin:round;paint-order:stroke fill markers"
         d="m 146.52264,168.96288 c -16.50577,0.14951 -33.97471,13.23643 -44.9678,17.82992 -2.262963,0.94558 -5.344717,1.60548 -6.880199,1.7787 1.164885,-0.0269 4.285472,-0.11447 6.243029,-0.45785 15.85344,-2.78095 30.32965,-13.84197 46.41629,-13.30824 12.92974,0.42899 36.51612,13.14597 36.51612,13.14597 l 0.32504,-8.7638 c 0.14352,-0.25833 -18.30084,-10.39999 -37.65248,-10.2247 z M 94.674641,188.5715 c -0.233512,0.005 -0.898136,0.0294 -0.898136,0.0294 0.1263,0.0361 0.45911,0.0201 0.898136,-0.0294 z M 144.7181,170.78809 c 7.34479,0.0489 18.03404,2.23242 18.03404,2.23242 0,0 -12.67988,-0.84941 -18.9885,-0.32453 -5.9215,0.49267 -17.52813,3.2458 -17.52813,3.2458 1.46065,-0.48689 10.15356,-4.45405 15.58044,-5.03122 0.87184,-0.0927 1.8529,-0.12945 2.90215,-0.12247 z" /></g></g></svg>
